solid redstoneLamp
facet normal 4.195753870655883e-13 7.780799359135116e-14 -1.0
  outer loop
    vertex 11042.08753929135 3709.8682055059976 997.299999999799
    vertex 11068.60221278537 3662.467454934445 997.2999999998078
    vertex 11068.517027351092 3661.820407321689 997.2999999998078
  endloop
endfacet
facet normal 4.195753870655883e-13 7.780799359135116e-14 -1.0
  outer loop
    vertex 11068.60221278537 3662.467454934445 997.2999999998078
    vertex 11042.08753929135 3709.8682055059976 997.299999999799
    vertex 11068.851963841635 3663.0704073216907 997.2999999998085
  endloop
endfacet
facet normal 4.195753870655883e-13 7.780799359135116e-14 -1.0
  outer loop
    vertex 11068.851963841635 3663.0704073216907 997.2999999998085
    vertex 11042.08753929135 3709.8682055059976 997.299999999799
    vertex 11101.0172736876 3709.8682055060135 997.2999999998257
  endloop
endfacet
facet normal 4.195753870655883e-13 7.780799359135116e-14 -1.0
  outer loop
    vertex 11068.851963841635 3663.0704073216907 997.2999999998085
    vertex 11101.0172736876 3709.8682055060135 997.2999999998257
    vertex 11069.249260398125 3663.5881742746537 997.2999999998084
  endloop
endfacet
facet normal 4.195753870655883e-13 7.780799359135116e-14 -1.0
  outer loop
    vertex 11069.249260398125 3663.5881742746537 997.2999999998084
    vertex 11101.0172736876 3709.8682055060135 997.2999999998257
    vertex 11069.7670273511 3663.9854708311505 997.2999999998087
  endloop
endfacet
facet normal 4.195753870655883e-13 7.780799359135116e-14 -1.0
  outer loop
    vertex 11069.7670273511 3663.9854708311505 997.2999999998087
    vertex 11101.0172736876 3709.8682055060135 997.2999999998257
    vertex 11070.36997973834 3664.2352218874107 997.299999999809
  endloop
endfacet
facet normal 4.195753870655883e-13 7.780799359135116e-14 -1.0
  outer loop
    vertex 11070.36997973834 3664.2352218874107 997.299999999809
    vertex 11101.0172736876 3709.8682055060135 997.2999999998257
    vertex 11071.017027351094 3664.3204073216866 997.2999999998094
  endloop
endfacet
facet normal 4.195753870655883e-13 7.780799359135116e-14 -1.0
  outer loop
    vertex 11071.017027351094 3664.3204073216866 997.2999999998094
    vertex 11101.0172736876 3709.8682055060135 997.2999999998257
    vertex 11071.664074963852 3664.2352218874084 997.2999999998096
  endloop
endfacet
facet normal 4.195753870655883e-13 7.780799359135116e-14 -1.0
  outer loop
    vertex 11071.664074963852 3664.2352218874084 997.2999999998096
    vertex 11101.0172736876 3709.8682055060135 997.2999999998257
    vertex 11072.267027351094 3663.985470831148 997.2999999998099
  endloop
endfacet
facet normal 4.195753870655883e-13 7.780799359135116e-14 -1.0
  outer loop
    vertex 11072.267027351094 3663.985470831148 997.2999999998099
    vertex 11101.0172736876 3709.8682055060135 997.2999999998257
    vertex 11072.784794304058 3663.5881742746537 997.29999999981
  endloop
endfacet
facet normal 4.195753870655883e-13 7.780799359135116e-14 -1.0
  outer loop
    vertex 11072.784794304058 3663.5881742746537 997.29999999981
    vertex 11101.0172736876 3709.8682055060135 997.2999999998257
    vertex 11073.182090860553 3663.07040732169 997.2999999998099
  endloop
endfacet
facet normal 4.195753870655883e-13 7.780799359135116e-14 -1.0
  outer loop
    vertex 11073.182090860553 3663.07040732169 997.2999999998099
    vertex 11101.0172736876 3709.8682055060135 997.2999999998257
    vertex 11073.431841916814 3662.467454934446 997.2999999998102
  endloop
endfacet
facet normal 4.195753870655883e-13 7.780799359135116e-14 -1.0
  outer loop
    vertex 11073.431841916814 3662.467454934446 997.2999999998102
    vertex 11101.0172736876 3709.8682055060135 997.2999999998257
    vertex 11073.517027351092 3661.8204073216893 997.2999999998102
  endloop
endfacet
facet normal 4.195753870655883e-13 7.780799359135116e-14 -1.0
  outer loop
    vertex 11073.517027351092 3661.8204073216893 997.2999999998102
    vertex 11101.0172736876 3709.8682055060135 997.2999999998257
    vertex 11101.017273687617 3632.4628235118994 997.2999999998185
  endloop
endfacet
facet normal 4.195753870655883e-13 7.780799359135116e-14 -1.0
  outer loop
    vertex 11042.087539291368 3632.462823511884 997.299999999795
    vertex 11069.249260398126 3660.0526403687245 997.299999999808
    vertex 11101.017273687617 3632.4628235118994 997.2999999998185
  endloop
endfacet
facet normal 4.195753870655883e-13 7.780799359135116e-14 -1.0
  outer loop
    vertex 11069.249260398126 3660.0526403687245 997.299999999808
    vertex 11042.087539291368 3632.462823511884 997.299999999795
    vertex 11068.851963841633 3660.5704073216903 997.2999999998082
  endloop
endfacet
facet normal 4.195753870655883e-13 7.780799359135116e-14 -1.0
  outer loop
    vertex 11068.851963841633 3660.5704073216903 997.2999999998082
    vertex 11042.087539291368 3632.462823511884 997.299999999795
    vertex 11042.08753929135 3709.8682055059976 997.299999999799
  endloop
endfacet
facet normal 4.195753870655883e-13 7.780799359135116e-14 -1.0
  outer loop
    vertex 11068.851963841633 3660.5704073216903 997.2999999998082
    vertex 11042.08753929135 3709.8682055059976 997.299999999799
    vertex 11068.602212785374 3661.1733597089333 997.2999999998078
  endloop
endfacet
facet normal 4.195753870655883e-13 7.780799359135116e-14 -1.0
  outer loop
    vertex 11068.602212785374 3661.1733597089333 997.2999999998078
    vertex 11042.08753929135 3709.8682055059976 997.299999999799
    vertex 11068.517027351092 3661.820407321689 997.2999999998078
  endloop
endfacet
facet normal 4.195753870655883e-13 7.780799359135116e-14 -1.0
  outer loop
    vertex 11101.017273687617 3632.4628235118994 997.2999999998185
    vertex 11069.249260398126 3660.0526403687245 997.299999999808
    vertex 11069.767027351094 3659.655343812226 997.2999999998085
  endloop
endfacet
facet normal 4.195753870655883e-13 7.780799359135116e-14 -1.0
  outer loop
    vertex 11101.017273687617 3632.4628235118994 997.2999999998185
    vertex 11069.767027351094 3659.655343812226 997.2999999998085
    vertex 11070.36997973834 3659.4055927559657 997.2999999998085
  endloop
endfacet
facet normal 4.195753870655883e-13 7.780799359135116e-14 -1.0
  outer loop
    vertex 11101.017273687617 3632.4628235118994 997.2999999998185
    vertex 11070.36997973834 3659.4055927559657 997.2999999998085
    vertex 11071.017027351094 3659.3204073216884 997.2999999998091
  endloop
endfacet
facet normal 4.195753870655883e-13 7.780799359135116e-14 -1.0
  outer loop
    vertex 11101.017273687617 3632.4628235118994 997.2999999998185
    vertex 11071.017027351094 3659.3204073216884 997.2999999998091
    vertex 11071.66407496385 3659.4055927559675 997.299999999809
  endloop
endfacet
facet normal 4.195753870655883e-13 7.780799359135116e-14 -1.0
  outer loop
    vertex 11101.017273687617 3632.4628235118994 997.2999999998185
    vertex 11071.66407496385 3659.4055927559675 997.299999999809
    vertex 11072.267027351098 3659.6553438122296 997.2999999998094
  endloop
endfacet
facet normal 4.195753870655883e-13 7.780799359135116e-14 -1.0
  outer loop
    vertex 11101.017273687617 3632.4628235118994 997.2999999998185
    vertex 11072.267027351098 3659.6553438122296 997.2999999998094
    vertex 11072.784794304062 3660.0526403687236 997.29999999981
  endloop
endfacet
facet normal 4.195753870655883e-13 7.780799359135116e-14 -1.0
  outer loop
    vertex 11101.017273687617 3632.4628235118994 997.2999999998185
    vertex 11072.784794304062 3660.0526403687236 997.29999999981
    vertex 11073.182090860557 3660.5704073216903 997.2999999998099
  endloop
endfacet
facet normal 4.195753870655883e-13 7.780799359135116e-14 -1.0
  outer loop
    vertex 11101.017273687617 3632.4628235118994 997.2999999998185
    vertex 11073.182090860557 3660.5704073216903 997.2999999998099
    vertex 11073.43184191682 3661.1733597089324 997.2999999998102
  endloop
endfacet
facet normal 4.195753870655883e-13 7.780799359135116e-14 -1.0
  outer loop
    vertex 11101.017273687617 3632.4628235118994 997.2999999998185
    vertex 11073.43184191682 3661.1733597089324 997.2999999998102
    vertex 11073.517027351092 3661.8204073216893 997.2999999998102
  endloop
endfacet
facet normal 2.614967618911239e-13 -1.0 -1.0107544312759158e-13
  outer loop
    vertex 11042.087539291368 3632.462823511884 997.299999999795
    vertex 11101.017273687617 3632.4628235118994 997.2999999998185
    vertex 11042.087539291359 3632.4628235118826 1011.9999999997964
  endloop
endfacet
facet normal 2.614967618911239e-13 -1.0 -1.0107544312759158e-13
  outer loop
    vertex 11114.717959165817 3632.4628235119 1011.9999999998254
    vertex 11101.017273687617 3632.4628235118994 997.2999999998185
    vertex 11114.717959165848 3632.4628235119058 945.2999999998243
  endloop
endfacet
facet normal 2.614967618911239e-13 -1.0 -1.0107544312759158e-13
  outer loop
    vertex 11101.017273687617 3632.4628235118994 997.2999999998185
    vertex 11114.717959165817 3632.4628235119 1011.9999999998254
    vertex 11042.087539291359 3632.4628235118826 1011.9999999997964
  endloop
endfacet
facet normal 2.614967618911239e-13 -1.0 -1.0107544312759158e-13
  outer loop
    vertex 11114.717959165848 3632.4628235119058 945.2999999998243
    vertex 11101.017273687617 3632.4628235118994 997.2999999998185
    vertex 11101.01727368764 3632.462823511903 945.2999999998191
  endloop
endfacet
facet normal 1.0 2.2038399678044726e-13 4.654001655155628e-13
  outer loop
    vertex 11114.717959165797 3720.9066697626095 1011.9999999998348
    vertex 11114.717959165844 3664.2070168434207 956.7365358358925
    vertex 11114.717959165842 3664.292202277698 956.089488223137
  endloop
endfacet
facet normal 1.0 2.2038399678044726e-13 4.654001655155628e-13
  outer loop
    vertex 11114.717959165844 3664.2070168434207 956.7365358358925
    vertex 11114.717959165797 3720.9066697626095 1011.9999999998348
    vertex 11114.717959165844 3663.9572657871586 957.3394882231374
  endloop
endfacet
facet normal 1.0 2.2038399678044726e-13 4.654001655155628e-13
  outer loop
    vertex 11114.717959165844 3663.9572657871586 957.3394882231374
    vertex 11114.717959165797 3720.9066697626095 1011.9999999998348
    vertex 11114.717959165817 3632.4628235119 1011.9999999998254
  endloop
endfacet
facet normal 1.0 2.2038399678044726e-13 4.654001655155628e-13
  outer loop
    vertex 11114.717959165844 3663.9572657871586 957.3394882231374
    vertex 11114.717959165817 3632.4628235119 1011.9999999998254
    vertex 11114.717959165844 3663.559969230665 957.8572551761039
  endloop
endfacet
facet normal 1.0 2.2038399678044726e-13 4.654001655155628e-13
  outer loop
    vertex 11114.717959165844 3663.559969230665 957.8572551761039
    vertex 11114.717959165817 3632.4628235119 1011.9999999998254
    vertex 11114.717959165844 3663.042202277699 958.2545517325985
  endloop
endfacet
facet normal 1.0 2.2038399678044726e-13 4.654001655155628e-13
  outer loop
    vertex 11114.717959165844 3663.042202277699 958.2545517325985
    vertex 11114.717959165817 3632.4628235119 1011.9999999998254
    vertex 11114.717959165844 3662.4392498904554 958.504302788859
  endloop
endfacet
facet normal 1.0 2.2038399678044726e-13 4.654001655155628e-13
  outer loop
    vertex 11114.717959165844 3662.4392498904554 958.504302788859
    vertex 11114.717959165817 3632.4628235119 1011.9999999998254
    vertex 11114.717959165842 3661.7922022776984 958.5894882231361
  endloop
endfacet
facet normal 1.0 2.2038399678044726e-13 4.654001655155628e-13
  outer loop
    vertex 11114.717959165842 3661.7922022776984 958.5894882231361
    vertex 11114.717959165817 3632.4628235119 1011.9999999998254
    vertex 11114.717959165842 3661.1451546649428 958.504302788858
  endloop
endfacet
facet normal 1.0 2.2038399678044726e-13 4.654001655155628e-13
  outer loop
    vertex 11114.717959165842 3661.1451546649428 958.504302788858
    vertex 11114.717959165817 3632.4628235119 1011.9999999998254
    vertex 11114.717959165842 3660.5422022776993 958.2545517325967
  endloop
endfacet
facet normal 1.0 2.2038399678044726e-13 4.654001655155628e-13
  outer loop
    vertex 11114.717959165842 3660.5422022776993 958.2545517325967
    vertex 11114.717959165817 3632.4628235119 1011.9999999998254
    vertex 11114.717959165844 3660.024435324734 957.8572551761029
  endloop
endfacet
facet normal 1.0 2.2038399678044726e-13 4.654001655155628e-13
  outer loop
    vertex 11114.717959165844 3660.024435324734 957.8572551761029
    vertex 11114.717959165817 3632.4628235119 1011.9999999998254
    vertex 11114.717959165842 3659.6271387682377 957.3394882231356
  endloop
endfacet
facet normal 1.0 2.2038399678044726e-13 4.654001655155628e-13
  outer loop
    vertex 11114.717959165842 3659.6271387682377 957.3394882231356
    vertex 11114.717959165817 3632.4628235119 1011.9999999998254
    vertex 11114.717959165842 3659.377387711976 956.7365358358921
  endloop
endfacet
facet normal 1.0 2.2038399678044726e-13 4.654001655155628e-13
  outer loop
    vertex 11114.717959165842 3659.377387711976 956.7365358358921
    vertex 11114.717959165817 3632.4628235119 1011.9999999998254
    vertex 11114.717959165844 3659.2922022776997 956.089488223136
  endloop
endfacet
facet normal 1.0 2.2038399678044726e-13 4.654001655155628e-13
  outer loop
    vertex 11114.717959165844 3659.2922022776997 956.089488223136
    vertex 11114.717959165817 3632.4628235119 1011.9999999998254
    vertex 11114.717959165848 3632.4628235119058 945.2999999998243
  endloop
endfacet
facet normal 1.0 2.2038399678044726e-13 4.654001655155628e-13
  outer loop
    vertex 11114.71795916583 3720.906669762615 945.2999999998337
    vertex 11114.717959165844 3662.4392498904563 953.6746736574145
    vertex 11114.717959165848 3632.4628235119058 945.2999999998243
  endloop
endfacet
facet normal 1.0 2.2038399678044726e-13 4.654001655155628e-13
  outer loop
    vertex 11114.717959165844 3662.4392498904563 953.6746736574145
    vertex 11114.71795916583 3720.906669762615 945.2999999998337
    vertex 11114.717959165844 3663.0422022777 953.9244247136744
  endloop
endfacet
facet normal 1.0 2.2038399678044726e-13 4.654001655155628e-13
  outer loop
    vertex 11114.717959165844 3663.0422022777 953.9244247136744
    vertex 11114.71795916583 3720.906669762615 945.2999999998337
    vertex 11114.717959165844 3663.5599692306664 954.3217212701711
  endloop
endfacet
facet normal 1.0 2.2038399678044726e-13 4.654001655155628e-13
  outer loop
    vertex 11114.717959165844 3663.5599692306664 954.3217212701711
    vertex 11114.71795916583 3720.906669762615 945.2999999998337
    vertex 11114.717959165797 3720.9066697626095 1011.9999999998348
  endloop
endfacet
facet normal 1.0 2.2038399678044726e-13 4.654001655155628e-13
  outer loop
    vertex 11114.717959165844 3663.5599692306664 954.3217212701711
    vertex 11114.717959165797 3720.9066697626095 1011.9999999998348
    vertex 11114.717959165842 3663.9572657871604 954.8394882231373
  endloop
endfacet
facet normal 1.0 2.2038399678044726e-13 4.654001655155628e-13
  outer loop
    vertex 11114.717959165842 3663.9572657871604 954.8394882231373
    vertex 11114.717959165797 3720.9066697626095 1011.9999999998348
    vertex 11114.717959165848 3664.2070168434207 955.4424406103822
  endloop
endfacet
facet normal 1.0 2.2038399678044726e-13 4.654001655155628e-13
  outer loop
    vertex 11114.717959165848 3664.2070168434207 955.4424406103822
    vertex 11114.717959165797 3720.9066697626095 1011.9999999998348
    vertex 11114.717959165842 3664.292202277698 956.089488223137
  endloop
endfacet
facet normal 1.0 2.2038399678044726e-13 4.654001655155628e-13
  outer loop
    vertex 11114.717959165848 3632.4628235119058 945.2999999998243
    vertex 11114.717959165844 3662.4392498904563 953.6746736574145
    vertex 11114.717959165846 3661.7922022776997 953.5894882231369
  endloop
endfacet
facet normal 1.0 2.2038399678044726e-13 4.654001655155628e-13
  outer loop
    vertex 11114.717959165848 3632.4628235119058 945.2999999998243
    vertex 11114.717959165846 3661.7922022776997 953.5894882231369
    vertex 11114.717959165848 3661.1451546649428 953.6746736574135
  endloop
endfacet
facet normal 1.0 2.2038399678044726e-13 4.654001655155628e-13
  outer loop
    vertex 11114.717959165848 3632.4628235119058 945.2999999998243
    vertex 11114.717959165848 3661.1451546649428 953.6746736574135
    vertex 11114.717959165846 3660.5422022777016 953.9244247136759
  endloop
endfacet
facet normal 1.0 2.2038399678044726e-13 4.654001655155628e-13
  outer loop
    vertex 11114.717959165848 3632.4628235119058 945.2999999998243
    vertex 11114.717959165846 3660.5422022777016 953.9244247136759
    vertex 11114.717959165846 3660.024435324734 954.3217212701696
  endloop
endfacet
facet normal 1.0 2.2038399678044726e-13 4.654001655155628e-13
  outer loop
    vertex 11114.717959165848 3632.4628235119058 945.2999999998243
    vertex 11114.717959165846 3660.024435324734 954.3217212701696
    vertex 11114.717959165846 3659.6271387682386 954.8394882231369
  endloop
endfacet
facet normal 1.0 2.2038399678044726e-13 4.654001655155628e-13
  outer loop
    vertex 11114.717959165848 3632.4628235119058 945.2999999998243
    vertex 11114.717959165846 3659.6271387682386 954.8394882231369
    vertex 11114.717959165846 3659.377387711977 955.4424406103807
  endloop
endfacet
facet normal 1.0 2.2038399678044726e-13 4.654001655155628e-13
  outer loop
    vertex 11114.717959165848 3632.4628235119058 945.2999999998243
    vertex 11114.717959165846 3659.377387711977 955.4424406103807
    vertex 11114.717959165844 3659.2922022776997 956.089488223136
  endloop
endfacet
facet normal -1.0 -2.32427844874812e-13 -6.44641131805084e-13
  outer loop
    vertex 11042.08753929135 3709.8682055059976 997.299999999799
    vertex 11042.087539291339 3720.906669762592 1011.9999999997962
    vertex 11042.087539291348 3720.9066697625935 997.2999999997945
  endloop
endfacet
facet normal -1.0 -2.32427844874812e-13 -6.44641131805084e-13
  outer loop
    vertex 11042.087539291339 3720.906669762592 1011.9999999997962
    vertex 11042.08753929135 3709.8682055059976 997.299999999799
    vertex 11042.087539291359 3632.4628235118826 1011.9999999997964
  endloop
endfacet
facet normal -1.0 -2.32427844874812e-13 -6.44641131805084e-13
  outer loop
    vertex 11042.087539291359 3632.4628235118826 1011.9999999997964
    vertex 11042.08753929135 3709.8682055059976 997.299999999799
    vertex 11042.087539291368 3632.462823511884 997.299999999795
  endloop
endfacet
facet normal -1.0 -2.2087430438804533e-13 -4.4425318125064196e-13
  outer loop
    vertex 11101.017273687625 3709.8682055060126 945.2999999998278
    vertex 11101.017273687628 3664.207016843417 955.442440610382
    vertex 11101.017273687627 3664.2922022776947 956.0894882231368
  endloop
endfacet
facet normal -1.0 -2.2087430438804533e-13 -4.4425318125064196e-13
  outer loop
    vertex 11101.017273687628 3664.207016843417 955.442440610382
    vertex 11101.017273687625 3709.8682055060126 945.2999999998278
    vertex 11101.017273687627 3663.9572657871568 954.8394882231371
  endloop
endfacet
facet normal -1.0 -2.2087430438804533e-13 -4.4425318125064196e-13
  outer loop
    vertex 11101.017273687627 3663.9572657871568 954.8394882231371
    vertex 11101.017273687625 3709.8682055060126 945.2999999998278
    vertex 11101.017273687627 3663.5599692306637 954.321721270171
  endloop
endfacet
facet normal -1.0 -2.2087430438804533e-13 -4.4425318125064196e-13
  outer loop
    vertex 11101.017273687627 3663.5599692306637 954.321721270171
    vertex 11101.017273687625 3709.8682055060126 945.2999999998278
    vertex 11101.017273687627 3663.0422022776966 953.9244247136742
  endloop
endfacet
facet normal -1.0 -2.2087430438804533e-13 -4.4425318125064196e-13
  outer loop
    vertex 11101.017273687627 3663.0422022776966 953.9244247136742
    vertex 11101.017273687625 3709.8682055060126 945.2999999998278
    vertex 11101.017273687627 3662.4392498904526 953.6746736574144
  endloop
endfacet
facet normal -1.0 -2.2087430438804533e-13 -4.4425318125064196e-13
  outer loop
    vertex 11101.017273687627 3662.4392498904526 953.6746736574144
    vertex 11101.017273687625 3709.8682055060126 945.2999999998278
    vertex 11101.01727368764 3632.462823511903 945.2999999998191
  endloop
endfacet
facet normal -1.0 -2.2087430438804533e-13 -4.4425318125064196e-13
  outer loop
    vertex 11101.017273687627 3662.4392498904526 953.6746736574144
    vertex 11101.01727368764 3632.462823511903 945.2999999998191
    vertex 11101.017273687628 3661.792202277696 953.5894882231361
  endloop
endfacet
facet normal -1.0 -2.2087430438804533e-13 -4.4425318125064196e-13
  outer loop
    vertex 11101.017273687628 3661.792202277696 953.5894882231361
    vertex 11101.01727368764 3632.462823511903 945.2999999998191
    vertex 11101.01727368763 3661.14515466494 953.6746736574131
  endloop
endfacet
facet normal -1.0 -2.2087430438804533e-13 -4.4425318125064196e-13
  outer loop
    vertex 11101.01727368763 3661.14515466494 953.6746736574131
    vertex 11101.01727368764 3632.462823511903 945.2999999998191
    vertex 11101.017273687628 3660.542202277698 953.9244247136754
  endloop
endfacet
facet normal -1.0 -2.2087430438804533e-13 -4.4425318125064196e-13
  outer loop
    vertex 11101.017273687628 3660.542202277698 953.9244247136754
    vertex 11101.01727368764 3632.462823511903 945.2999999998191
    vertex 11101.017273687627 3660.0244353247303 954.3217212701693
  endloop
endfacet
facet normal -1.0 -2.2087430438804533e-13 -4.4425318125064196e-13
  outer loop
    vertex 11101.017273687627 3660.0244353247303 954.3217212701693
    vertex 11101.01727368764 3632.462823511903 945.2999999998191
    vertex 11101.017273687627 3659.627138768235 954.8394882231365
  endloop
endfacet
facet normal -1.0 -2.2087430438804533e-13 -4.4425318125064196e-13
  outer loop
    vertex 11101.017273687627 3659.627138768235 954.8394882231365
    vertex 11101.01727368764 3632.462823511903 945.2999999998191
    vertex 11101.01727368763 3659.3773877119734 955.4424406103803
  endloop
endfacet
facet normal -1.0 -2.2087430438804533e-13 -4.4425318125064196e-13
  outer loop
    vertex 11101.01727368763 3659.3773877119734 955.4424406103803
    vertex 11101.01727368764 3632.462823511903 945.2999999998191
    vertex 11101.017273687628 3659.292202277696 956.0894882231355
  endloop
endfacet
facet normal -1.0 -2.2087430438804533e-13 -4.4425318125064196e-13
  outer loop
    vertex 11101.017273687625 3709.8682055060126 945.2999999998278
    vertex 11101.017273687617 3632.4628235118994 997.2999999998185
    vertex 11101.0172736876 3709.8682055060135 997.2999999998257
  endloop
endfacet
facet normal -1.0 -2.2087430438804533e-13 -4.4425318125064196e-13
  outer loop
    vertex 11101.017273687617 3632.4628235118994 997.2999999998185
    vertex 11101.017273687625 3709.8682055060126 945.2999999998278
    vertex 11101.017273687628 3663.5599692306614 957.8572551761038
  endloop
endfacet
facet normal -1.0 -2.2087430438804533e-13 -4.4425318125064196e-13
  outer loop
    vertex 11101.017273687628 3663.5599692306614 957.8572551761038
    vertex 11101.017273687625 3709.8682055060126 945.2999999998278
    vertex 11101.017273687628 3663.9572657871545 957.3394882231369
  endloop
endfacet
facet normal -1.0 -2.2087430438804533e-13 -4.4425318125064196e-13
  outer loop
    vertex 11101.017273687628 3663.9572657871545 957.3394882231369
    vertex 11101.017273687625 3709.8682055060126 945.2999999998278
    vertex 11101.017273687628 3664.207016843417 956.7365358358924
  endloop
endfacet
facet normal -1.0 -2.2087430438804533e-13 -4.4425318125064196e-13
  outer loop
    vertex 11101.017273687628 3664.207016843417 956.7365358358924
    vertex 11101.017273687625 3709.8682055060126 945.2999999998278
    vertex 11101.017273687627 3664.2922022776947 956.0894882231368
  endloop
endfacet
facet normal -1.0 -2.2087430438804533e-13 -4.4425318125064196e-13
  outer loop
    vertex 11101.017273687617 3632.4628235118994 997.2999999998185
    vertex 11101.017273687628 3663.5599692306614 957.8572551761038
    vertex 11101.017273687628 3663.042202277696 958.2545517325983
  endloop
endfacet
facet normal -1.0 -2.2087430438804533e-13 -4.4425318125064196e-13
  outer loop
    vertex 11101.017273687617 3632.4628235118994 997.2999999998185
    vertex 11101.017273687628 3663.042202277696 958.2545517325983
    vertex 11101.017273687627 3662.4392498904517 958.5043027888589
  endloop
endfacet
facet normal -1.0 -2.2087430438804533e-13 -4.4425318125064196e-13
  outer loop
    vertex 11101.017273687617 3632.4628235118994 997.2999999998185
    vertex 11101.017273687627 3662.4392498904517 958.5043027888589
    vertex 11101.017273687627 3661.7922022776947 958.5894882231357
  endloop
endfacet
facet normal -1.0 -2.2087430438804533e-13 -4.4425318125064196e-13
  outer loop
    vertex 11101.017273687617 3632.4628235118994 997.2999999998185
    vertex 11101.017273687627 3661.7922022776947 958.5894882231357
    vertex 11101.017273687627 3661.14515466494 958.5043027888577
  endloop
endfacet
facet normal -1.0 -2.2087430438804533e-13 -4.4425318125064196e-13
  outer loop
    vertex 11101.017273687617 3632.4628235118994 997.2999999998185
    vertex 11101.017273687627 3661.14515466494 958.5043027888577
    vertex 11101.017273687627 3660.5422022776966 958.2545517325967
  endloop
endfacet
facet normal -1.0 -2.2087430438804533e-13 -4.4425318125064196e-13
  outer loop
    vertex 11101.017273687617 3632.4628235118994 997.2999999998185
    vertex 11101.017273687627 3660.5422022776966 958.2545517325967
    vertex 11101.017273687627 3660.0244353247303 957.8572551761022
  endloop
endfacet
facet normal -1.0 -2.2087430438804533e-13 -4.4425318125064196e-13
  outer loop
    vertex 11101.017273687617 3632.4628235118994 997.2999999998185
    vertex 11101.017273687627 3660.0244353247303 957.8572551761022
    vertex 11101.017273687625 3659.627138768235 957.3394882231353
  endloop
endfacet
facet normal -1.0 -2.2087430438804533e-13 -4.4425318125064196e-13
  outer loop
    vertex 11101.017273687617 3632.4628235118994 997.2999999998185
    vertex 11101.017273687625 3659.627138768235 957.3394882231353
    vertex 11101.017273687625 3659.3773877119725 956.7365358358918
  endloop
endfacet
facet normal -1.0 -2.2087430438804533e-13 -4.4425318125064196e-13
  outer loop
    vertex 11101.017273687617 3632.4628235118994 997.2999999998185
    vertex 11101.017273687625 3659.3773877119725 956.7365358358918
    vertex 11101.017273687628 3659.292202277696 956.0894882231355
  endloop
endfacet
facet normal -1.0 -2.2087430438804533e-13 -4.4425318125064196e-13
  outer loop
    vertex 11101.017273687617 3632.4628235118994 997.2999999998185
    vertex 11101.017273687628 3659.292202277696 956.0894882231355
    vertex 11101.01727368764 3632.462823511903 945.2999999998191
  endloop
endfacet
facet normal 3.8711760859093573e-13 1.0536704453708122e-13 -1.0
  outer loop
    vertex 11114.71795916583 3720.906669762615 945.2999999998337
    vertex 11042.087539291375 3709.8682055059976 945.2999999998011
    vertex 11042.087539291371 3720.906669762597 945.2999999998012
  endloop
endfacet
facet normal 3.8711760859093573e-13 1.0536704453708122e-13 -1.0
  outer loop
    vertex 11042.087539291375 3709.8682055059976 945.2999999998011
    vertex 11114.71795916583 3720.906669762615 945.2999999998337
    vertex 11101.017273687625 3709.8682055060126 945.2999999998278
  endloop
endfacet
facet normal 3.8711760859093573e-13 1.0536704453708122e-13 -1.0
  outer loop
    vertex 11101.017273687625 3709.8682055060126 945.2999999998278
    vertex 11114.71795916583 3720.906669762615 945.2999999998337
    vertex 11114.717959165848 3632.4628235119058 945.2999999998243
  endloop
endfacet
facet normal 3.8711760859093573e-13 1.0536704453708122e-13 -1.0
  outer loop
    vertex 11114.717959165848 3632.4628235119058 945.2999999998243
    vertex 11101.01727368764 3632.462823511903 945.2999999998191
    vertex 11101.017273687625 3709.8682055060126 945.2999999998278
  endloop
endfacet
facet normal -1.0 -2.6190270450696624e-13 -4.4425318125066857e-13
  outer loop
    vertex 11042.087539291375 3709.8682055059976 945.2999999998011
    vertex 11042.087539291348 3720.9066697625935 997.2999999997945
    vertex 11042.087539291371 3720.906669762597 945.2999999998012
  endloop
endfacet
facet normal -1.0 -2.6190270450696624e-13 -4.4425318125066857e-13
  outer loop
    vertex 11042.087539291348 3720.9066697625935 997.2999999997945
    vertex 11042.087539291375 3709.8682055059976 945.2999999998011
    vertex 11042.08753929135 3709.8682055059976 997.299999999799
  endloop
endfacet
facet normal -2.493127559572526e-13 1.0 7.745773314600663e-14
  outer loop
    vertex 11114.71795916583 3720.906669762615 945.2999999998337
    vertex 11042.087539291339 3720.906669762592 1011.9999999997962
    vertex 11114.717959165797 3720.9066697626095 1011.9999999998348
  endloop
endfacet
facet normal -2.493127559572526e-13 1.0 7.745773314600663e-14
  outer loop
    vertex 11042.087539291339 3720.906669762592 1011.9999999997962
    vertex 11114.71795916583 3720.906669762615 945.2999999998337
    vertex 11042.087539291348 3720.9066697625935 997.2999999997945
  endloop
endfacet
facet normal -2.493127559572526e-13 1.0 7.745773314600663e-14
  outer loop
    vertex 11042.087539291348 3720.9066697625935 997.2999999997945
    vertex 11114.71795916583 3720.906669762615 945.2999999998337
    vertex 11071.42535921298 3720.9066697626035 958.1480282974258
  endloop
endfacet
facet normal -2.493127559572526e-13 1.0 7.745773314600663e-14
  outer loop
    vertex 11042.087539291348 3720.9066697625935 997.2999999997945
    vertex 11071.42535921298 3720.9066697626035 958.1480282974258
    vertex 11070.778311600227 3720.9066697626045 958.2332137317039
  endloop
endfacet
facet normal -2.493127559572526e-13 1.0 7.745773314600663e-14
  outer loop
    vertex 11071.42535921298 3720.9066697626035 958.1480282974258
    vertex 11114.71795916583 3720.906669762615 945.2999999998337
    vertex 11072.028311600225 3720.9066697626045 957.8982772411658
  endloop
endfacet
facet normal -2.493127559572526e-13 1.0 7.745773314600663e-14
  outer loop
    vertex 11072.028311600225 3720.9066697626045 957.8982772411658
    vertex 11114.71795916583 3720.906669762615 945.2999999998337
    vertex 11072.546078553194 3720.906669762605 957.5009806846697
  endloop
endfacet
facet normal -2.493127559572526e-13 1.0 7.745773314600663e-14
  outer loop
    vertex 11072.546078553194 3720.906669762605 957.5009806846697
    vertex 11114.71795916583 3720.906669762615 945.2999999998337
    vertex 11072.943375109682 3720.906669762606 956.9832137317035
  endloop
endfacet
facet normal -2.493127559572526e-13 1.0 7.745773314600663e-14
  outer loop
    vertex 11072.943375109682 3720.906669762606 956.9832137317035
    vertex 11114.71795916583 3720.906669762615 945.2999999998337
    vertex 11073.193126165943 3720.906669762605 956.3802613444599
  endloop
endfacet
facet normal -2.493127559572526e-13 1.0 7.745773314600663e-14
  outer loop
    vertex 11073.193126165943 3720.906669762605 956.3802613444599
    vertex 11114.71795916583 3720.906669762615 945.2999999998337
    vertex 11073.278311600227 3720.9066697626045 955.7332137317047
  endloop
endfacet
facet normal -2.493127559572526e-13 1.0 7.745773314600663e-14
  outer loop
    vertex 11073.278311600227 3720.9066697626045 955.7332137317047
    vertex 11114.71795916583 3720.906669762615 945.2999999998337
    vertex 11073.193126165947 3720.9066697626045 955.0861661189492
  endloop
endfacet
facet normal -2.493127559572526e-13 1.0 7.745773314600663e-14
  outer loop
    vertex 11073.193126165947 3720.9066697626045 955.0861661189492
    vertex 11114.71795916583 3720.906669762615 945.2999999998337
    vertex 11072.943375109686 3720.906669762605 954.4832137317052
  endloop
endfacet
facet normal -2.493127559572526e-13 1.0 7.745773314600663e-14
  outer loop
    vertex 11072.943375109686 3720.906669762605 954.4832137317052
    vertex 11114.71795916583 3720.906669762615 945.2999999998337
    vertex 11072.54607855319 3720.906669762605 953.9654467787379
  endloop
endfacet
facet normal -2.493127559572526e-13 1.0 7.745773314600663e-14
  outer loop
    vertex 11072.54607855319 3720.906669762605 953.9654467787379
    vertex 11114.71795916583 3720.906669762615 945.2999999998337
    vertex 11072.028311600227 3720.9066697626045 953.5681502222435
  endloop
endfacet
facet normal -2.493127559572526e-13 1.0 7.745773314600663e-14
  outer loop
    vertex 11072.028311600227 3720.9066697626045 953.5681502222435
    vertex 11114.71795916583 3720.906669762615 945.2999999998337
    vertex 11071.425359212984 3720.9066697626045 953.3183991659826
  endloop
endfacet
facet normal -2.493127559572526e-13 1.0 7.745773314600663e-14
  outer loop
    vertex 11071.425359212984 3720.9066697626045 953.3183991659826
    vertex 11114.71795916583 3720.906669762615 945.2999999998337
    vertex 11070.778311600228 3720.9066697626045 953.2332137317044
  endloop
endfacet
facet normal -2.493127559572526e-13 1.0 7.745773314600663e-14
  outer loop
    vertex 11042.087539291348 3720.9066697625935 997.2999999997945
    vertex 11069.52831160023 3720.9066697626045 957.8982772411658
    vertex 11042.087539291371 3720.906669762597 945.2999999998012
  endloop
endfacet
facet normal -2.493127559572526e-13 1.0 7.745773314600663e-14
  outer loop
    vertex 11069.52831160023 3720.9066697626045 957.8982772411658
    vertex 11042.087539291348 3720.9066697625935 997.2999999997945
    vertex 11070.13126398747 3720.9066697626045 958.1480282974276
  endloop
endfacet
facet normal -2.493127559572526e-13 1.0 7.745773314600663e-14
  outer loop
    vertex 11070.13126398747 3720.9066697626045 958.1480282974276
    vertex 11042.087539291348 3720.9066697625935 997.2999999997945
    vertex 11070.778311600227 3720.9066697626045 958.2332137317039
  endloop
endfacet
facet normal -2.493127559572526e-13 1.0 7.745773314600663e-14
  outer loop
    vertex 11042.087539291371 3720.906669762597 945.2999999998012
    vertex 11069.52831160023 3720.9066697626045 957.8982772411658
    vertex 11069.010544647259 3720.9066697626035 957.5009806846697
  endloop
endfacet
facet normal -2.493127559572526e-13 1.0 7.745773314600663e-14
  outer loop
    vertex 11042.087539291371 3720.906669762597 945.2999999998012
    vertex 11069.010544647259 3720.9066697626035 957.5009806846697
    vertex 11068.613248090764 3720.9066697626035 956.9832137317031
  endloop
endfacet
facet normal -2.493127559572526e-13 1.0 7.745773314600663e-14
  outer loop
    vertex 11042.087539291371 3720.906669762597 945.2999999998012
    vertex 11068.613248090764 3720.9066697626035 956.9832137317031
    vertex 11068.3634970345 3720.9066697626035 956.380261344459
  endloop
endfacet
facet normal -2.493127559572526e-13 1.0 7.745773314600663e-14
  outer loop
    vertex 11042.087539291371 3720.906669762597 945.2999999998012
    vertex 11068.3634970345 3720.9066697626035 956.380261344459
    vertex 11068.278311600227 3720.9066697626035 955.7332137317036
  endloop
endfacet
facet normal -2.493127559572526e-13 1.0 7.745773314600663e-14
  outer loop
    vertex 11042.087539291371 3720.906669762597 945.2999999998012
    vertex 11068.278311600227 3720.9066697626035 955.7332137317036
    vertex 11068.363497034501 3720.9066697626026 955.086166118948
  endloop
endfacet
facet normal -2.493127559572526e-13 1.0 7.745773314600663e-14
  outer loop
    vertex 11042.087539291371 3720.906669762597 945.2999999998012
    vertex 11068.363497034501 3720.9066697626026 955.086166118948
    vertex 11068.613248090765 3720.9066697626035 954.4832137317034
  endloop
endfacet
facet normal -2.493127559572526e-13 1.0 7.745773314600663e-14
  outer loop
    vertex 11042.087539291371 3720.906669762597 945.2999999998012
    vertex 11068.613248090765 3720.9066697626035 954.4832137317034
    vertex 11069.010544647264 3720.9066697626026 953.9654467787351
  endloop
endfacet
facet normal -2.493127559572526e-13 1.0 7.745773314600663e-14
  outer loop
    vertex 11042.087539291371 3720.906669762597 945.2999999998012
    vertex 11069.010544647264 3720.9066697626026 953.9654467787351
    vertex 11069.528311600225 3720.9066697626045 953.5681502222421
  endloop
endfacet
facet normal -2.493127559572526e-13 1.0 7.745773314600663e-14
  outer loop
    vertex 11042.087539291371 3720.906669762597 945.2999999998012
    vertex 11069.528311600225 3720.9066697626045 953.5681502222421
    vertex 11070.131263987469 3720.9066697626045 953.3183991659808
  endloop
endfacet
facet normal -2.493127559572526e-13 1.0 7.745773314600663e-14
  outer loop
    vertex 11042.087539291371 3720.906669762597 945.2999999998012
    vertex 11070.131263987469 3720.9066697626045 953.3183991659808
    vertex 11070.778311600228 3720.9066697626045 953.2332137317044
  endloop
endfacet
facet normal -2.493127559572526e-13 1.0 7.745773314600663e-14
  outer loop
    vertex 11042.087539291371 3720.906669762597 945.2999999998012
    vertex 11070.778311600228 3720.9066697626045 953.2332137317044
    vertex 11114.71795916583 3720.906669762615 945.2999999998337
  endloop
endfacet
facet normal -4.895212980100922e-13 -5.316176318984447e-14 1.0
  outer loop
    vertex 11042.087539291359 3632.4628235118826 1011.9999999997964
    vertex 11068.851963841638 3660.570407321692 1011.9999999998056
    vertex 11042.087539291339 3720.906669762592 1011.9999999997962
  endloop
endfacet
facet normal -4.895212980100922e-13 -5.316176318984447e-14 1.0
  outer loop
    vertex 11068.851963841638 3660.570407321692 1011.9999999998056
    vertex 11042.087539291359 3632.4628235118826 1011.9999999997964
    vertex 11069.249260398134 3660.052640368726 1011.9999999998054
  endloop
endfacet
facet normal -4.895212980100922e-13 -5.316176318984447e-14 1.0
  outer loop
    vertex 11069.249260398134 3660.052640368726 1011.9999999998054
    vertex 11042.087539291359 3632.4628235118826 1011.9999999997964
    vertex 11069.7670273511 3659.6553438122273 1011.9999999998062
  endloop
endfacet
facet normal -4.895212980100922e-13 -5.316176318984447e-14 1.0
  outer loop
    vertex 11069.7670273511 3659.6553438122273 1011.9999999998062
    vertex 11042.087539291359 3632.4628235118826 1011.9999999997964
    vertex 11114.717959165817 3632.4628235119 1011.9999999998254
  endloop
endfacet
facet normal -4.895212980100922e-13 -5.316176318984447e-14 1.0
  outer loop
    vertex 11042.087539291339 3720.906669762592 1011.9999999997962
    vertex 11068.851963841638 3660.570407321692 1011.9999999998056
    vertex 11068.60221278538 3661.1733597089355 1011.9999999998054
  endloop
endfacet
facet normal -4.895212980100922e-13 -5.316176318984447e-14 1.0
  outer loop
    vertex 11042.087539291339 3720.906669762592 1011.9999999997962
    vertex 11068.60221278538 3661.1733597089355 1011.9999999998054
    vertex 11068.5170273511 3661.8204073216907 1011.9999999998054
  endloop
endfacet
facet normal -4.895212980100922e-13 -5.316176318984447e-14 1.0
  outer loop
    vertex 11069.7670273511 3659.6553438122273 1011.9999999998062
    vertex 11114.717959165817 3632.4628235119 1011.9999999998254
    vertex 11070.369979738345 3659.4055927559675 1011.9999999998059
  endloop
endfacet
facet normal -4.895212980100922e-13 -5.316176318984447e-14 1.0
  outer loop
    vertex 11070.369979738345 3659.4055927559675 1011.9999999998059
    vertex 11114.717959165817 3632.4628235119 1011.9999999998254
    vertex 11071.0170273511 3659.32040732169 1011.9999999998066
  endloop
endfacet
facet normal -4.895212980100922e-13 -5.316176318984447e-14 1.0
  outer loop
    vertex 11071.0170273511 3659.32040732169 1011.9999999998066
    vertex 11114.717959165817 3632.4628235119 1011.9999999998254
    vertex 11071.664074963855 3659.405592755969 1011.9999999998063
  endloop
endfacet
facet normal -4.895212980100922e-13 -5.316176318984447e-14 1.0
  outer loop
    vertex 11071.664074963855 3659.405592755969 1011.9999999998063
    vertex 11114.717959165817 3632.4628235119 1011.9999999998254
    vertex 11072.267027351103 3659.655343812231 1011.9999999998071
  endloop
endfacet
facet normal -4.895212980100922e-13 -5.316176318984447e-14 1.0
  outer loop
    vertex 11072.267027351103 3659.655343812231 1011.9999999998071
    vertex 11114.717959165817 3632.4628235119 1011.9999999998254
    vertex 11072.784794304067 3660.052640368725 1011.9999999998074
  endloop
endfacet
facet normal -4.895212980100922e-13 -5.316176318984447e-14 1.0
  outer loop
    vertex 11072.784794304067 3660.052640368725 1011.9999999998074
    vertex 11114.717959165817 3632.4628235119 1011.9999999998254
    vertex 11073.182090860562 3660.570407321692 1011.9999999998072
  endloop
endfacet
facet normal -4.895212980100922e-13 -5.316176318984447e-14 1.0
  outer loop
    vertex 11073.182090860562 3660.570407321692 1011.9999999998072
    vertex 11114.717959165817 3632.4628235119 1011.9999999998254
    vertex 11073.431841916825 3661.1733597089337 1011.9999999998078
  endloop
endfacet
facet normal -4.895212980100922e-13 -5.316176318984447e-14 1.0
  outer loop
    vertex 11073.431841916825 3661.1733597089337 1011.9999999998078
    vertex 11114.717959165817 3632.4628235119 1011.9999999998254
    vertex 11073.5170273511 3661.8204073216907 1011.9999999998078
  endloop
endfacet
facet normal -4.895212980100922e-13 -5.316176318984447e-14 1.0
  outer loop
    vertex 11042.087539291339 3720.906669762592 1011.9999999997962
    vertex 11069.24926039813 3663.588174274655 1011.9999999998057
    vertex 11114.717959165797 3720.9066697626095 1011.9999999998348
  endloop
endfacet
facet normal -4.895212980100922e-13 -5.316176318984447e-14 1.0
  outer loop
    vertex 11069.24926039813 3663.588174274655 1011.9999999998057
    vertex 11042.087539291339 3720.906669762592 1011.9999999997962
    vertex 11068.85196384164 3663.070407321692 1011.9999999998059
  endloop
endfacet
facet normal -4.895212980100922e-13 -5.316176318984447e-14 1.0
  outer loop
    vertex 11068.85196384164 3663.070407321692 1011.9999999998059
    vertex 11042.087539291339 3720.906669762592 1011.9999999997962
    vertex 11068.602212785378 3662.4674549344472 1011.9999999998054
  endloop
endfacet
facet normal -4.895212980100922e-13 -5.316176318984447e-14 1.0
  outer loop
    vertex 11068.602212785378 3662.4674549344472 1011.9999999998054
    vertex 11042.087539291339 3720.906669762592 1011.9999999997962
    vertex 11068.5170273511 3661.8204073216907 1011.9999999998054
  endloop
endfacet
facet normal -4.895212980100922e-13 -5.316176318984447e-14 1.0
  outer loop
    vertex 11114.717959165797 3720.9066697626095 1011.9999999998348
    vertex 11069.24926039813 3663.588174274655 1011.9999999998057
    vertex 11069.767027351105 3663.985470831152 1011.9999999998063
  endloop
endfacet
facet normal -4.895212980100922e-13 -5.316176318984447e-14 1.0
  outer loop
    vertex 11114.717959165797 3720.9066697626095 1011.9999999998348
    vertex 11069.767027351105 3663.985470831152 1011.9999999998063
    vertex 11070.369979738345 3664.235221887412 1011.9999999998063
  endloop
endfacet
facet normal -4.895212980100922e-13 -5.316176318984447e-14 1.0
  outer loop
    vertex 11114.717959165797 3720.9066697626095 1011.9999999998348
    vertex 11070.369979738345 3664.235221887412 1011.9999999998063
    vertex 11071.0170273511 3664.320407321688 1011.9999999998071
  endloop
endfacet
facet normal -4.895212980100922e-13 -5.316176318984447e-14 1.0
  outer loop
    vertex 11114.717959165797 3720.9066697626095 1011.9999999998348
    vertex 11071.0170273511 3664.320407321688 1011.9999999998071
    vertex 11071.664074963857 3664.2352218874103 1011.9999999998071
  endloop
endfacet
facet normal -4.895212980100922e-13 -5.316176318984447e-14 1.0
  outer loop
    vertex 11114.717959165797 3720.9066697626095 1011.9999999998348
    vertex 11071.664074963857 3664.2352218874103 1011.9999999998071
    vertex 11072.2670273511 3663.98547083115 1011.9999999998074
  endloop
endfacet
facet normal -4.895212980100922e-13 -5.316176318984447e-14 1.0
  outer loop
    vertex 11114.717959165797 3720.9066697626095 1011.9999999998348
    vertex 11072.2670273511 3663.98547083115 1011.9999999998074
    vertex 11072.784794304063 3663.588174274655 1011.9999999998074
  endloop
endfacet
facet normal -4.895212980100922e-13 -5.316176318984447e-14 1.0
  outer loop
    vertex 11114.717959165797 3720.9066697626095 1011.9999999998348
    vertex 11072.784794304063 3663.588174274655 1011.9999999998074
    vertex 11073.182090860559 3663.070407321691 1011.9999999998072
  endloop
endfacet
facet normal -4.895212980100922e-13 -5.316176318984447e-14 1.0
  outer loop
    vertex 11114.717959165797 3720.9066697626095 1011.9999999998348
    vertex 11073.182090860559 3663.070407321691 1011.9999999998072
    vertex 11073.43184191682 3662.4674549344472 1011.9999999998078
  endloop
endfacet
facet normal -4.895212980100922e-13 -5.316176318984447e-14 1.0
  outer loop
    vertex 11114.717959165797 3720.9066697626095 1011.9999999998348
    vertex 11073.43184191682 3662.4674549344472 1011.9999999998078
    vertex 11073.5170273511 3661.8204073216907 1011.9999999998078
  endloop
endfacet
facet normal -4.895212980100922e-13 -5.316176318984447e-14 1.0
  outer loop
    vertex 11114.717959165797 3720.9066697626095 1011.9999999998348
    vertex 11073.5170273511 3661.8204073216907 1011.9999999998078
    vertex 11114.717959165817 3632.4628235119 1011.9999999998254
  endloop
endfacet
facet normal 2.695082778231618e-13 -1.0 6.9414559571609824e-15
  outer loop
    vertex 11042.08753929135 3709.8682055059976 997.299999999799
    vertex 11070.13126398747 3709.868205506005 958.1480282974276
    vertex 11070.778311600227 3709.868205506005 958.2332137317039
  endloop
endfacet
facet normal 2.695082778231618e-13 -1.0 6.9414559571609824e-15
  outer loop
    vertex 11070.13126398747 3709.868205506005 958.1480282974276
    vertex 11042.08753929135 3709.8682055059976 997.299999999799
    vertex 11069.52831160023 3709.868205506005 957.898277241166
  endloop
endfacet
facet normal 2.695082778231618e-13 -1.0 6.9414559571609824e-15
  outer loop
    vertex 11069.52831160023 3709.868205506005 957.898277241166
    vertex 11042.08753929135 3709.8682055059976 997.299999999799
    vertex 11042.087539291375 3709.8682055059976 945.2999999998011
  endloop
endfacet
facet normal 2.695082778231618e-13 -1.0 6.9414559571609824e-15
  outer loop
    vertex 11069.52831160023 3709.868205506005 957.898277241166
    vertex 11042.087539291375 3709.8682055059976 945.2999999998011
    vertex 11069.010544647259 3709.868205506004 957.5009806846698
  endloop
endfacet
facet normal 2.695082778231618e-13 -1.0 6.9414559571609824e-15
  outer loop
    vertex 11069.010544647259 3709.868205506004 957.5009806846698
    vertex 11042.087539291375 3709.8682055059976 945.2999999998011
    vertex 11068.613248090764 3709.868205506004 956.983213731703
  endloop
endfacet
facet normal 2.695082778231618e-13 -1.0 6.9414559571609824e-15
  outer loop
    vertex 11068.613248090764 3709.868205506004 956.983213731703
    vertex 11042.087539291375 3709.8682055059976 945.2999999998011
    vertex 11068.3634970345 3709.868205506004 956.380261344459
  endloop
endfacet
facet normal 2.695082778231618e-13 -1.0 6.9414559571609824e-15
  outer loop
    vertex 11068.3634970345 3709.868205506004 956.380261344459
    vertex 11042.087539291375 3709.8682055059976 945.2999999998011
    vertex 11068.278311600227 3709.868205506004 955.7332137317038
  endloop
endfacet
facet normal 2.695082778231618e-13 -1.0 6.9414559571609824e-15
  outer loop
    vertex 11068.278311600227 3709.868205506004 955.7332137317038
    vertex 11042.087539291375 3709.8682055059976 945.2999999998011
    vertex 11068.363497034501 3709.8682055060035 955.086166118948
  endloop
endfacet
facet normal 2.695082778231618e-13 -1.0 6.9414559571609824e-15
  outer loop
    vertex 11068.363497034501 3709.8682055060035 955.086166118948
    vertex 11042.087539291375 3709.8682055059976 945.2999999998011
    vertex 11068.613248090765 3709.868205506004 954.4832137317031
  endloop
endfacet
facet normal 2.695082778231618e-13 -1.0 6.9414559571609824e-15
  outer loop
    vertex 11068.613248090765 3709.868205506004 954.4832137317031
    vertex 11042.087539291375 3709.8682055059976 945.2999999998011
    vertex 11069.010544647264 3709.8682055060035 953.9654467787352
  endloop
endfacet
facet normal 2.695082778231618e-13 -1.0 6.9414559571609824e-15
  outer loop
    vertex 11069.010544647264 3709.8682055060035 953.9654467787352
    vertex 11042.087539291375 3709.8682055059976 945.2999999998011
    vertex 11069.528311600225 3709.868205506005 953.5681502222423
  endloop
endfacet
facet normal 2.695082778231618e-13 -1.0 6.9414559571609824e-15
  outer loop
    vertex 11069.528311600225 3709.868205506005 953.5681502222423
    vertex 11042.087539291375 3709.8682055059976 945.2999999998011
    vertex 11070.131263987469 3709.868205506005 953.3183991659808
  endloop
endfacet
facet normal 2.695082778231618e-13 -1.0 6.9414559571609824e-15
  outer loop
    vertex 11070.131263987469 3709.868205506005 953.3183991659808
    vertex 11042.087539291375 3709.8682055059976 945.2999999998011
    vertex 11070.778311600228 3709.868205506005 953.2332137317044
  endloop
endfacet
facet normal 2.695082778231618e-13 -1.0 6.9414559571609824e-15
  outer loop
    vertex 11070.778311600228 3709.868205506005 953.2332137317044
    vertex 11042.087539291375 3709.8682055059976 945.2999999998011
    vertex 11101.017273687625 3709.8682055060126 945.2999999998278
  endloop
endfacet
facet normal 2.695082778231618e-13 -1.0 6.9414559571609824e-15
  outer loop
    vertex 11042.08753929135 3709.8682055059976 997.299999999799
    vertex 11101.017273687625 3709.8682055060126 945.2999999998278
    vertex 11101.0172736876 3709.8682055060135 997.2999999998257
  endloop
endfacet
facet normal 2.695082778231618e-13 -1.0 6.9414559571609824e-15
  outer loop
    vertex 11101.017273687625 3709.8682055060126 945.2999999998278
    vertex 11042.08753929135 3709.8682055059976 997.299999999799
    vertex 11072.028311600225 3709.868205506005 957.8982772411657
  endloop
endfacet
facet normal 2.695082778231618e-13 -1.0 6.9414559571609824e-15
  outer loop
    vertex 11072.028311600225 3709.868205506005 957.8982772411657
    vertex 11042.08753929135 3709.8682055059976 997.299999999799
    vertex 11071.42535921298 3709.868205506004 958.1480282974258
  endloop
endfacet
facet normal 2.695082778231618e-13 -1.0 6.9414559571609824e-15
  outer loop
    vertex 11071.42535921298 3709.868205506004 958.1480282974258
    vertex 11042.08753929135 3709.8682055059976 997.299999999799
    vertex 11070.778311600227 3709.868205506005 958.2332137317039
  endloop
endfacet
facet normal 2.695082778231618e-13 -1.0 6.9414559571609824e-15
  outer loop
    vertex 11101.017273687625 3709.8682055060126 945.2999999998278
    vertex 11072.028311600225 3709.868205506005 957.8982772411657
    vertex 11072.546078553194 3709.868205506006 957.5009806846697
  endloop
endfacet
facet normal 2.695082778231618e-13 -1.0 6.9414559571609824e-15
  outer loop
    vertex 11101.017273687625 3709.8682055060126 945.2999999998278
    vertex 11072.546078553194 3709.868205506006 957.5009806846697
    vertex 11072.943375109682 3709.8682055060062 956.9832137317037
  endloop
endfacet
facet normal 2.695082778231618e-13 -1.0 6.9414559571609824e-15
  outer loop
    vertex 11101.017273687625 3709.8682055060126 945.2999999998278
    vertex 11072.943375109682 3709.8682055060062 956.9832137317037
    vertex 11073.193126165943 3709.868205506006 956.3802613444599
  endloop
endfacet
facet normal 2.695082778231618e-13 -1.0 6.9414559571609824e-15
  outer loop
    vertex 11101.017273687625 3709.8682055060126 945.2999999998278
    vertex 11073.193126165943 3709.868205506006 956.3802613444599
    vertex 11073.278311600227 3709.868205506005 955.7332137317045
  endloop
endfacet
facet normal 2.695082778231618e-13 -1.0 6.9414559571609824e-15
  outer loop
    vertex 11101.017273687625 3709.8682055060126 945.2999999998278
    vertex 11073.278311600227 3709.868205506005 955.7332137317045
    vertex 11073.193126165947 3709.868205506005 955.0861661189492
  endloop
endfacet
facet normal 2.695082778231618e-13 -1.0 6.9414559571609824e-15
  outer loop
    vertex 11101.017273687625 3709.8682055060126 945.2999999998278
    vertex 11073.193126165947 3709.868205506005 955.0861661189492
    vertex 11072.943375109686 3709.868205506006 954.4832137317054
  endloop
endfacet
facet normal 2.695082778231618e-13 -1.0 6.9414559571609824e-15
  outer loop
    vertex 11101.017273687625 3709.8682055060126 945.2999999998278
    vertex 11072.943375109686 3709.868205506006 954.4832137317054
    vertex 11072.54607855319 3709.868205506006 953.9654467787379
  endloop
endfacet
facet normal 2.695082778231618e-13 -1.0 6.9414559571609824e-15
  outer loop
    vertex 11101.017273687625 3709.8682055060126 945.2999999998278
    vertex 11072.54607855319 3709.868205506006 953.9654467787379
    vertex 11072.028311600227 3709.868205506005 953.5681502222434
  endloop
endfacet
facet normal 2.695082778231618e-13 -1.0 6.9414559571609824e-15
  outer loop
    vertex 11101.017273687625 3709.8682055060126 945.2999999998278
    vertex 11072.028311600227 3709.868205506005 953.5681502222434
    vertex 11071.425359212984 3709.868205506005 953.3183991659826
  endloop
endfacet
facet normal 2.695082778231618e-13 -1.0 6.9414559571609824e-15
  outer loop
    vertex 11101.017273687625 3709.8682055060126 945.2999999998278
    vertex 11071.425359212984 3709.868205506005 953.3183991659826
    vertex 11070.778311600228 3709.868205506005 953.2332137317044
  endloop
endfacet
facet normal -0.9238795325112512 0.3826834323651759 -3.653864995926936e-13
  outer loop
    vertex 11073.43184191682 3661.1733597089324 997.2999999998102
    vertex 11073.182090860562 3660.570407321692 1011.9999999998072
    vertex 11073.431841916825 3661.1733597089337 1011.9999999998078
  endloop
endfacet
facet normal -0.9238795325112512 0.3826834323651759 -3.653864995926936e-13
  outer loop
    vertex 11073.182090860562 3660.570407321692 1011.9999999998072
    vertex 11073.43184191682 3661.1733597089324 997.2999999998102
    vertex 11073.182090860557 3660.5704073216903 997.2999999998099
  endloop
endfacet
facet normal -0.7933533402920374 0.6087614290076755 -2.936386589697764e-13
  outer loop
    vertex 11073.182090860557 3660.5704073216903 997.2999999998099
    vertex 11072.784794304067 3660.052640368725 1011.9999999998074
    vertex 11073.182090860562 3660.570407321692 1011.9999999998072
  endloop
endfacet
facet normal -0.7933533402920374 0.6087614290076755 -2.936386589697764e-13
  outer loop
    vertex 11072.784794304067 3660.052640368725 1011.9999999998074
    vertex 11073.182090860557 3660.5704073216903 997.2999999998099
    vertex 11072.784794304062 3660.0526403687236 997.29999999981
  endloop
endfacet
facet normal -0.6087614290096504 0.793353340290522 -2.0187982899851805e-13
  outer loop
    vertex 11072.784794304062 3660.0526403687236 997.29999999981
    vertex 11072.267027351103 3659.655343812231 1011.9999999998071
    vertex 11072.784794304067 3660.052640368725 1011.9999999998074
  endloop
endfacet
facet normal -0.6087614290096504 0.793353340290522 -2.0187982899851805e-13
  outer loop
    vertex 11072.267027351103 3659.655343812231 1011.9999999998071
    vertex 11072.784794304062 3660.0526403687236 997.29999999981
    vertex 11072.267027351098 3659.6553438122296 997.2999999998094
  endloop
endfacet
facet normal -0.3826834323635444 0.9238795325119269 -9.636322230205265e-14
  outer loop
    vertex 11072.267027351098 3659.6553438122296 997.2999999998094
    vertex 11071.664074963855 3659.405592755969 1011.9999999998063
    vertex 11072.267027351103 3659.655343812231 1011.9999999998071
  endloop
endfacet
facet normal -0.3826834323635444 0.9238795325119269 -9.636322230205265e-14
  outer loop
    vertex 11071.664074963855 3659.405592755969 1011.9999999998063
    vertex 11072.267027351098 3659.6553438122296 997.2999999998094
    vertex 11071.66407496385 3659.4055927559675 997.299999999809
  endloop
endfacet
facet normal -0.13052619222129777 0.9914448613736465 1.5720378744196626e-14
  outer loop
    vertex 11071.664074963855 3659.405592755969 1011.9999999998063
    vertex 11071.017027351094 3659.3204073216884 997.2999999998091
    vertex 11071.0170273511 3659.32040732169 1011.9999999998066
  endloop
endfacet
facet normal -0.13052619222129777 0.9914448613736465 1.5720378744196626e-14
  outer loop
    vertex 11071.017027351094 3659.3204073216884 997.2999999998091
    vertex 11071.664074963855 3659.405592755969 1011.9999999998063
    vertex 11071.66407496385 3659.4055927559675 997.299999999809
  endloop
endfacet
facet normal 0.13052619222049675 0.9914448613737518 1.267326619601179e-13
  outer loop
    vertex 11071.017027351094 3659.3204073216884 997.2999999998091
    vertex 11070.369979738345 3659.4055927559675 1011.9999999998059
    vertex 11071.0170273511 3659.32040732169 1011.9999999998066
  endloop
endfacet
facet normal 0.13052619222049675 0.9914448613737518 1.267326619601179e-13
  outer loop
    vertex 11070.369979738345 3659.4055927559675 1011.9999999998059
    vertex 11071.017027351094 3659.3204073216884 997.2999999998091
    vertex 11070.36997973834 3659.4055927559657 997.2999999998085
  endloop
endfacet
facet normal 0.38268343236133207 0.9238795325128433 2.29108323696698e-13
  outer loop
    vertex 11070.369979738345 3659.4055927559675 1011.9999999998059
    vertex 11069.767027351094 3659.655343812226 997.2999999998085
    vertex 11069.7670273511 3659.6553438122273 1011.9999999998062
  endloop
endfacet
facet normal 0.38268343236133207 0.9238795325128433 2.29108323696698e-13
  outer loop
    vertex 11069.767027351094 3659.655343812226 997.2999999998085
    vertex 11070.369979738345 3659.4055927559675 1011.9999999998059
    vertex 11070.36997973834 3659.4055927559657 997.2999999998085
  endloop
endfacet
facet normal 0.6087614290116908 0.7933533402889563 3.1587063179691023e-13
  outer loop
    vertex 11069.767027351094 3659.655343812226 997.2999999998085
    vertex 11069.249260398134 3660.052640368726 1011.9999999998054
    vertex 11069.7670273511 3659.6553438122273 1011.9999999998062
  endloop
endfacet
facet normal 0.6087614290116908 0.7933533402889563 3.1587063179691023e-13
  outer loop
    vertex 11069.249260398134 3660.052640368726 1011.9999999998054
    vertex 11069.767027351094 3659.655343812226 997.2999999998085
    vertex 11069.249260398126 3660.0526403687245 997.299999999808
  endloop
endfacet
facet normal 0.7933533402912175 0.6087614290087439 3.811068783374474e-13
  outer loop
    vertex 11069.249260398134 3660.052640368726 1011.9999999998054
    vertex 11068.851963841633 3660.5704073216903 997.2999999998082
    vertex 11068.851963841638 3660.570407321692 1011.9999999998056
  endloop
endfacet
facet normal 0.7933533402912175 0.6087614290087439 3.811068783374474e-13
  outer loop
    vertex 11068.851963841633 3660.5704073216903 997.2999999998082
    vertex 11069.249260398134 3660.052640368726 1011.9999999998054
    vertex 11069.249260398126 3660.0526403687245 997.299999999808
  endloop
endfacet
facet normal 0.9238795325115752 0.38268343236439367 4.2037132092936556e-13
  outer loop
    vertex 11068.851963841638 3660.570407321692 1011.9999999998056
    vertex 11068.602212785374 3661.1733597089333 997.2999999998078
    vertex 11068.60221278538 3661.1733597089355 1011.9999999998054
  endloop
endfacet
facet normal 0.9238795325115752 0.38268343236439367 4.2037132092936556e-13
  outer loop
    vertex 11068.602212785374 3661.1733597089333 997.2999999998078
    vertex 11068.851963841638 3660.570407321692 1011.9999999998056
    vertex 11068.851963841633 3660.5704073216903 997.2999999998082
  endloop
endfacet
facet normal 0.9914448613735034 0.1305261922223851 4.3098815269629265e-13
  outer loop
    vertex 11068.60221278538 3661.1733597089355 1011.9999999998054
    vertex 11068.517027351092 3661.820407321689 997.2999999998078
    vertex 11068.5170273511 3661.8204073216907 1011.9999999998054
  endloop
endfacet
facet normal 0.9914448613735034 0.1305261922223851 4.3098815269629265e-13
  outer loop
    vertex 11068.517027351092 3661.820407321689 997.2999999998078
    vertex 11068.60221278538 3661.1733597089355 1011.9999999998054
    vertex 11068.602212785374 3661.1733597089333 997.2999999998078
  endloop
endfacet
facet normal 0.9914448613738084 -0.13052619222006728 4.122338540985647e-13
  outer loop
    vertex 11068.5170273511 3661.8204073216907 1011.9999999998054
    vertex 11068.60221278537 3662.467454934445 997.2999999998078
    vertex 11068.602212785378 3662.4674549344472 1011.9999999998054
  endloop
endfacet
facet normal 0.9914448613738084 -0.13052619222006728 4.122338540985647e-13
  outer loop
    vertex 11068.60221278537 3662.467454934445 997.2999999998078
    vertex 11068.5170273511 3661.8204073216907 1011.9999999998054
    vertex 11068.517027351092 3661.820407321689 997.2999999998078
  endloop
endfacet
facet normal 0.9238795325103348 -0.38268343236738817 3.653864995921449e-13
  outer loop
    vertex 11068.602212785378 3662.4674549344472 1011.9999999998054
    vertex 11068.851963841635 3663.0704073216907 997.2999999998085
    vertex 11068.85196384164 3663.070407321692 1011.9999999998059
  endloop
endfacet
facet normal 0.9238795325103348 -0.38268343236738817 3.653864995921449e-13
  outer loop
    vertex 11068.851963841635 3663.0704073216907 997.2999999998085
    vertex 11068.602212785378 3662.4674549344472 1011.9999999998054
    vertex 11068.60221278537 3662.467454934445 997.2999999998078
  endloop
endfacet
facet normal 0.7933533402927831 -0.6087614290067035 2.936386589701633e-13
  outer loop
    vertex 11068.85196384164 3663.070407321692 1011.9999999998059
    vertex 11069.249260398125 3663.5881742746537 997.2999999998084
    vertex 11069.24926039813 3663.588174274655 1011.9999999998057
  endloop
endfacet
facet normal 0.7933533402927831 -0.6087614290067035 2.936386589701633e-13
  outer loop
    vertex 11069.249260398125 3663.5881742746537 997.2999999998084
    vertex 11068.85196384164 3663.070407321692 1011.9999999998059
    vertex 11068.851963841635 3663.0704073216907 997.2999999998085
  endloop
endfacet
facet normal 0.6087614290038875 -0.7933533402949438 2.0187982899574974e-13
  outer loop
    vertex 11069.24926039813 3663.588174274655 1011.9999999998057
    vertex 11069.7670273511 3663.9854708311505 997.2999999998087
    vertex 11069.767027351105 3663.985470831152 1011.9999999998063
  endloop
endfacet
facet normal 0.6087614290038875 -0.7933533402949438 2.0187982899574974e-13
  outer loop
    vertex 11069.7670273511 3663.9854708311505 997.2999999998087
    vertex 11069.24926039813 3663.588174274655 1011.9999999998057
    vertex 11069.249260398125 3663.5881742746537 997.2999999998084
  endloop
endfacet
facet normal 0.3826834323663491 -0.9238795325107652 9.636322230332877e-14
  outer loop
    vertex 11069.7670273511 3663.9854708311505 997.2999999998087
    vertex 11070.369979738345 3664.235221887412 1011.9999999998063
    vertex 11069.767027351105 3663.985470831152 1011.9999999998063
  endloop
endfacet
facet normal 0.3826834323663491 -0.9238795325107652 9.636322230332877e-14
  outer loop
    vertex 11070.369979738345 3664.235221887412 1011.9999999998063
    vertex 11069.7670273511 3663.9854708311505 997.2999999998087
    vertex 11070.36997973834 3664.2352218874107 997.299999999809
  endloop
endfacet
facet normal 0.13052619221832212 -0.9914448613740382 -1.572037874549017e-14
  outer loop
    vertex 11070.369979738345 3664.235221887412 1011.9999999998063
    vertex 11071.017027351094 3664.3204073216866 997.2999999998094
    vertex 11071.0170273511 3664.320407321688 1011.9999999998071
  endloop
endfacet
facet normal 0.13052619221832212 -0.9914448613740382 -1.572037874549017e-14
  outer loop
    vertex 11071.017027351094 3664.3204073216866 997.2999999998094
    vertex 11070.369979738345 3664.235221887412 1011.9999999998063
    vertex 11070.36997973834 3664.2352218874107 997.299999999809
  endloop
endfacet
facet normal -0.13052619222181247 -0.9914448613735786 -1.2673266196066494e-13
  outer loop
    vertex 11071.017027351094 3664.3204073216866 997.2999999998094
    vertex 11071.664074963857 3664.2352218874103 1011.9999999998071
    vertex 11071.0170273511 3664.320407321688 1011.9999999998071
  endloop
endfacet
facet normal -0.13052619222181247 -0.9914448613735786 -1.2673266196066494e-13
  outer loop
    vertex 11071.664074963857 3664.2352218874103 1011.9999999998071
    vertex 11071.017027351094 3664.3204073216866 997.2999999998094
    vertex 11071.664074963852 3664.2352218874084 997.2999999998096
  endloop
endfacet
facet normal -0.38268343236462277 -0.9238795325114801 -2.2910832369799945e-13
  outer loop
    vertex 11071.664074963857 3664.2352218874103 1011.9999999998071
    vertex 11072.267027351094 3663.985470831148 997.2999999998099
    vertex 11072.2670273511 3663.98547083115 1011.9999999998074
  endloop
endfacet
facet normal -0.38268343236462277 -0.9238795325114801 -2.2910832369799945e-13
  outer loop
    vertex 11072.267027351094 3663.985470831148 997.2999999998099
    vertex 11071.664074963857 3664.2352218874103 1011.9999999998071
    vertex 11071.664074963852 3664.2352218874084 997.2999999998096
  endloop
endfacet
facet normal -0.6087614290103466 -0.7933533402899875 -3.1587063179641263e-13
  outer loop
    vertex 11072.267027351094 3663.985470831148 997.2999999998099
    vertex 11072.784794304063 3663.588174274655 1011.9999999998074
    vertex 11072.2670273511 3663.98547083115 1011.9999999998074
  endloop
endfacet
facet normal -0.6087614290103466 -0.7933533402899875 -3.1587063179641263e-13
  outer loop
    vertex 11072.784794304063 3663.588174274655 1011.9999999998074
    vertex 11072.267027351094 3663.985470831148 997.2999999998099
    vertex 11072.784794304058 3663.5881742746537 997.29999999981
  endloop
endfacet
facet normal -0.7933533402885091 -0.6087614290122733 -3.8110687833654916e-13
  outer loop
    vertex 11072.784794304058 3663.5881742746537 997.29999999981
    vertex 11073.182090860559 3663.070407321691 1011.9999999998072
    vertex 11072.784794304063 3663.588174274655 1011.9999999998074
  endloop
endfacet
facet normal -0.7933533402885091 -0.6087614290122733 -3.8110687833654916e-13
  outer loop
    vertex 11073.182090860559 3663.070407321691 1011.9999999998072
    vertex 11072.784794304058 3663.5881742746537 997.29999999981
    vertex 11073.182090860553 3663.07040732169 997.2999999998099
  endloop
endfacet
facet normal -0.9238795325125194 -0.38268343236211433 -4.203713209296034e-13
  outer loop
    vertex 11073.182090860553 3663.07040732169 997.2999999998099
    vertex 11073.43184191682 3662.4674549344472 1011.9999999998078
    vertex 11073.182090860559 3663.070407321691 1011.9999999998072
  endloop
endfacet
facet normal -0.9238795325125194 -0.38268343236211433 -4.203713209296034e-13
  outer loop
    vertex 11073.43184191682 3662.4674549344472 1011.9999999998078
    vertex 11073.182090860553 3663.07040732169 997.2999999998099
    vertex 11073.431841916814 3662.467454934446 997.2999999998102
  endloop
endfacet
facet normal -0.9914448613735221 -0.1305261922222419 -4.309881526962903e-13
  outer loop
    vertex 11073.431841916814 3662.467454934446 997.2999999998102
    vertex 11073.5170273511 3661.8204073216907 1011.9999999998078
    vertex 11073.43184191682 3662.4674549344472 1011.9999999998078
  endloop
endfacet
facet normal -0.9914448613735221 -0.1305261922222419 -4.309881526962903e-13
  outer loop
    vertex 11073.5170273511 3661.8204073216907 1011.9999999998078
    vertex 11073.431841916814 3662.467454934446 997.2999999998102
    vertex 11073.517027351092 3661.8204073216893 997.2999999998102
  endloop
endfacet
facet normal -0.9914448613743999 0.13052619221557493 -4.1223385409913897e-13
  outer loop
    vertex 11073.517027351092 3661.8204073216893 997.2999999998102
    vertex 11073.431841916825 3661.1733597089337 1011.9999999998078
    vertex 11073.5170273511 3661.8204073216907 1011.9999999998078
  endloop
endfacet
facet normal -0.9914448613743999 0.13052619221557493 -4.1223385409913897e-13
  outer loop
    vertex 11073.431841916825 3661.1733597089337 1011.9999999998078
    vertex 11073.517027351092 3661.8204073216893 997.2999999998102
    vertex 11073.43184191682 3661.1733597089324 997.2999999998102
  endloop
endfacet
facet normal -2.5948502359368203e-13 0.9914448613739515 -0.13052619221898
  outer loop
    vertex 11114.717959165842 3659.377387711976 956.7365358358921
    vertex 11101.017273687628 3659.292202277696 956.0894882231355
    vertex 11101.017273687625 3659.3773877119725 956.7365358358918
  endloop
endfacet
facet normal -2.5948502359368203e-13 0.9914448613739515 -0.13052619221898
  outer loop
    vertex 11101.017273687628 3659.292202277696 956.0894882231355
    vertex 11114.717959165842 3659.377387711976 956.7365358358921
    vertex 11114.717959165844 3659.2922022776997 956.089488223136
  endloop
endfacet
facet normal -2.140234511945671e-13 0.9238795325109886 -0.38268343236581
  outer loop
    vertex 11114.717959165842 3659.6271387682377 957.3394882231356
    vertex 11101.017273687625 3659.3773877119725 956.7365358358918
    vertex 11101.017273687625 3659.627138768235 957.3394882231353
  endloop
endfacet
facet normal -2.140234511945671e-13 0.9238795325109886 -0.38268343236581
  outer loop
    vertex 11101.017273687625 3659.3773877119725 956.7365358358918
    vertex 11114.717959165842 3659.6271387682377 957.3394882231356
    vertex 11114.717959165842 3659.377387711976 956.7365358358921
  endloop
endfacet
facet normal -1.720755473166223e-13 0.7933533402909285 -0.6087614290091206
  outer loop
    vertex 11114.717959165844 3660.024435324734 957.8572551761029
    vertex 11101.017273687625 3659.627138768235 957.3394882231353
    vertex 11101.017273687627 3660.0244353247303 957.8572551761022
  endloop
endfacet
facet normal -1.720755473166223e-13 0.7933533402909285 -0.6087614290091206
  outer loop
    vertex 11101.017273687625 3659.627138768235 957.3394882231353
    vertex 11114.717959165844 3660.024435324734 957.8572551761029
    vertex 11114.717959165842 3659.6271387682377 957.3394882231356
  endloop
endfacet
facet normal -1.3389458712103351e-13 0.6087614290086628 -0.7933533402912795
  outer loop
    vertex 11114.717959165842 3660.5422022776993 958.2545517325967
    vertex 11101.017273687627 3660.0244353247303 957.8572551761022
    vertex 11101.017273687627 3660.5422022776966 958.2545517325967
  endloop
endfacet
facet normal -1.3389458712103351e-13 0.6087614290086628 -0.7933533402912795
  outer loop
    vertex 11101.017273687627 3660.0244353247303 957.8572551761022
    vertex 11114.717959165842 3660.5422022776993 958.2545517325967
    vertex 11114.717959165844 3660.024435324734 957.8572551761029
  endloop
endfacet
facet normal -8.065699801501682e-14 0.3826834323646298 -0.9238795325114774
  outer loop
    vertex 11114.717959165842 3661.1451546649428 958.504302788858
    vertex 11101.017273687627 3660.5422022776966 958.2545517325967
    vertex 11101.017273687627 3661.14515466494 958.5043027888577
  endloop
endfacet
facet normal -8.065699801501682e-14 0.3826834323646298 -0.9238795325114774
  outer loop
    vertex 11101.017273687627 3660.5422022776966 958.2545517325967
    vertex 11114.717959165842 3661.1451546649428 958.504302788858
    vertex 11114.717959165842 3660.5422022776993 958.2545517325967
  endloop
endfacet
facet normal -1.7889195398538373e-14 0.13052619222136932 -0.991444861373637
  outer loop
    vertex 11114.717959165842 3661.7922022776984 958.5894882231361
    vertex 11101.017273687627 3661.14515466494 958.5043027888577
    vertex 11101.017273687627 3661.7922022776947 958.5894882231357
  endloop
endfacet
facet normal -1.7889195398538373e-14 0.13052619222136932 -0.991444861373637
  outer loop
    vertex 11101.017273687627 3661.14515466494 958.5043027888577
    vertex 11114.717959165842 3661.7922022776984 958.5894882231361
    vertex 11114.717959165842 3661.1451546649428 958.504302788858
  endloop
endfacet
facet normal 4.7448465256519335e-14 -0.1305261922193805 -0.9914448613738989
  outer loop
    vertex 11114.717959165844 3662.4392498904554 958.504302788859
    vertex 11101.017273687627 3661.7922022776947 958.5894882231357
    vertex 11101.017273687627 3662.4392498904517 958.5043027888589
  endloop
endfacet
facet normal 4.7448465256519335e-14 -0.1305261922193805 -0.9914448613738989
  outer loop
    vertex 11101.017273687627 3661.7922022776947 958.5894882231357
    vertex 11114.717959165844 3662.4392498904554 958.504302788859
    vertex 11114.717959165842 3661.7922022776984 958.5894882231361
  endloop
endfacet
facet normal 1.0290880460220047e-13 -0.38268343236372604 -0.9238795325118517
  outer loop
    vertex 11101.017273687628 3663.042202277696 958.2545517325983
    vertex 11114.717959165844 3662.4392498904554 958.504302788859
    vertex 11101.017273687627 3662.4392498904517 958.5043027888589
  endloop
endfacet
facet normal 1.0290880460220047e-13 -0.38268343236372604 -0.9238795325118517
  outer loop
    vertex 11114.717959165844 3662.4392498904554 958.504302788859
    vertex 11101.017273687628 3663.042202277696 958.2545517325983
    vertex 11114.717959165844 3663.042202277699 958.2545517325985
  endloop
endfacet
facet normal 1.5479533976386491e-13 -0.608761429009011 -0.7933533402910125
  outer loop
    vertex 11114.717959165844 3663.559969230665 957.8572551761039
    vertex 11101.017273687628 3663.042202277696 958.2545517325983
    vertex 11101.017273687628 3663.5599692306614 957.8572551761038
  endloop
endfacet
facet normal 1.5479533976386491e-13 -0.608761429009011 -0.7933533402910125
  outer loop
    vertex 11101.017273687628 3663.042202277696 958.2545517325983
    vertex 11114.717959165844 3663.559969230665 957.8572551761039
    vertex 11114.717959165844 3663.042202277699 958.2545517325985
  endloop
endfacet
facet normal 2.4595576330495727e-13 -0.7933533402923262 -0.6087614290072989
  outer loop
    vertex 11101.017273687628 3663.9572657871545 957.3394882231369
    vertex 11114.717959165844 3663.559969230665 957.8572551761039
    vertex 11101.017273687628 3663.5599692306614 957.8572551761038
  endloop
endfacet
facet normal 2.4595576330495727e-13 -0.7933533402923262 -0.6087614290072989
  outer loop
    vertex 11114.717959165844 3663.559969230665 957.8572551761039
    vertex 11101.017273687628 3663.9572657871545 957.3394882231369
    vertex 11114.717959165844 3663.9572657871586 957.3394882231374
  endloop
endfacet
facet normal 2.7782662753463155e-13 -0.923879532511272 -0.38268343236512553
  outer loop
    vertex 11101.017273687628 3664.207016843417 956.7365358358924
    vertex 11114.717959165844 3663.9572657871586 957.3394882231374
    vertex 11101.017273687628 3663.9572657871545 957.3394882231369
  endloop
endfacet
facet normal 2.7782662753463155e-13 -0.923879532511272 -0.38268343236512553
  outer loop
    vertex 11114.717959165844 3663.9572657871586 957.3394882231374
    vertex 11101.017273687628 3664.207016843417 956.7365358358924
    vertex 11114.717959165844 3664.2070168434207 956.7365358358925
  endloop
endfacet
facet normal 2.3680299387358704e-13 -0.991444861373718 -0.1305261922207541
  outer loop
    vertex 11101.017273687627 3664.2922022776947 956.0894882231368
    vertex 11114.717959165844 3664.2070168434207 956.7365358358925
    vertex 11101.017273687628 3664.207016843417 956.7365358358924
  endloop
endfacet
facet normal 2.3680299387358704e-13 -0.991444861373718 -0.1305261922207541
  outer loop
    vertex 11114.717959165844 3664.2070168434207 956.7365358358925
    vertex 11101.017273687627 3664.2922022776947 956.0894882231368
    vertex 11114.717959165842 3664.292202277698 956.089488223137
  endloop
endfacet
facet normal 2.3336429750804897e-13 -0.991444861373699 0.13052619222089726
  outer loop
    vertex 11101.017273687628 3664.207016843417 955.442440610382
    vertex 11114.717959165842 3664.292202277698 956.089488223137
    vertex 11101.017273687627 3664.2922022776947 956.0894882231368
  endloop
endfacet
facet normal 2.3336429750804897e-13 -0.991444861373699 0.13052619222089726
  outer loop
    vertex 11114.717959165842 3664.292202277698 956.089488223137
    vertex 11101.017273687628 3664.207016843417 955.442440610382
    vertex 11114.717959165848 3664.2070168434207 955.4424406103822
  endloop
endfacet
facet normal 2.383638378326505e-13 -0.9238795325122903 0.3826834323626674
  outer loop
    vertex 11101.017273687627 3663.9572657871568 954.8394882231371
    vertex 11114.717959165848 3664.2070168434207 955.4424406103822
    vertex 11101.017273687628 3664.207016843417 955.442440610382
  endloop
endfacet
facet normal 2.383638378326505e-13 -0.9238795325122903 0.3826834323626674
  outer loop
    vertex 11114.717959165848 3664.2070168434207 955.4424406103822
    vertex 11101.017273687627 3663.9572657871568 954.8394882231371
    vertex 11114.717959165842 3663.9572657871604 954.8394882231373
  endloop
endfacet
facet normal 1.8009570352263553e-13 -0.7933533402920188 0.6087614290076996
  outer loop
    vertex 11101.017273687627 3663.5599692306637 954.321721270171
    vertex 11114.717959165842 3663.9572657871604 954.8394882231373
    vertex 11101.017273687627 3663.9572657871568 954.8394882231371
  endloop
endfacet
facet normal 1.8009570352263553e-13 -0.7933533402920188 0.6087614290076996
  outer loop
    vertex 11114.717959165842 3663.9572657871604 954.8394882231373
    vertex 11101.017273687627 3663.5599692306637 954.321721270171
    vertex 11114.717959165844 3663.5599692306664 954.3217212701711
  endloop
endfacet
facet normal 1.3389375663019046e-13 -0.6087614290105654 0.7933533402898197
  outer loop
    vertex 11114.717959165844 3663.0422022777 953.9244247136744
    vertex 11101.017273687627 3663.5599692306637 954.321721270171
    vertex 11101.017273687627 3663.0422022776966 953.9244247136742
  endloop
endfacet
facet normal 1.3389375663019046e-13 -0.6087614290105654 0.7933533402898197
  outer loop
    vertex 11101.017273687627 3663.5599692306637 954.321721270171
    vertex 11114.717959165844 3663.0422022777 953.9244247136744
    vertex 11114.717959165844 3663.5599692306664 954.3217212701711
  endloop
endfacet
facet normal 8.865107103766249e-14 -0.3826834323625864 0.9238795325123238
  outer loop
    vertex 11114.717959165844 3662.4392498904563 953.6746736574145
    vertex 11101.017273687627 3663.0422022776966 953.9244247136742
    vertex 11101.017273687627 3662.4392498904526 953.6746736574144
  endloop
endfacet
facet normal 8.865107103766249e-14 -0.3826834323625864 0.9238795325123238
  outer loop
    vertex 11101.017273687627 3663.0422022776966 953.9244247136742
    vertex 11114.717959165844 3662.4392498904563 953.6746736574145
    vertex 11114.717959165844 3663.0422022777 953.9244247136744
  endloop
endfacet
facet normal 8.267783158909222e-15 -0.1305261922208828 0.9914448613737011
  outer loop
    vertex 11114.717959165846 3661.7922022776997 953.5894882231369
    vertex 11101.017273687627 3662.4392498904526 953.6746736574144
    vertex 11101.017273687628 3661.792202277696 953.5894882231361
  endloop
endfacet
facet normal 8.267783158909222e-15 -0.1305261922208828 0.9914448613737011
  outer loop
    vertex 11101.017273687627 3662.4392498904526 953.6746736574144
    vertex 11114.717959165846 3661.7922022776997 953.5894882231369
    vertex 11114.717959165844 3662.4392498904563 953.6746736574145
  endloop
endfacet
facet normal -5.706977056032709e-14 0.13052619221918027 0.9914448613739253
  outer loop
    vertex 11101.01727368763 3661.14515466494 953.6746736574131
    vertex 11114.717959165846 3661.7922022776997 953.5894882231369
    vertex 11101.017273687628 3661.792202277696 953.5894882231361
  endloop
endfacet
facet normal -5.706977056032709e-14 0.13052619221918027 0.9914448613739253
  outer loop
    vertex 11114.717959165846 3661.7922022776997 953.5894882231369
    vertex 11101.01727368763 3661.14515466494 953.6746736574131
    vertex 11114.717959165848 3661.1451546649428 953.6746736574135
  endloop
endfacet
facet normal -1.0290935256932709e-13 0.38268343236725977 0.923879532510388
  outer loop
    vertex 11114.717959165846 3660.5422022777016 953.9244247136759
    vertex 11101.01727368763 3661.14515466494 953.6746736574131
    vertex 11101.017273687628 3660.542202277698 953.9244247136754
  endloop
endfacet
facet normal -1.0290935256932709e-13 0.38268343236725977 0.923879532510388
  outer loop
    vertex 11101.01727368763 3661.14515466494 953.6746736574131
    vertex 11114.717959165846 3660.5422022777016 953.9244247136759
    vertex 11114.717959165848 3661.1451546649428 953.6746736574135
  endloop
endfacet
facet normal -1.708338646232234e-13 0.608761429006979 0.7933533402925714
  outer loop
    vertex 11114.717959165846 3660.024435324734 954.3217212701696
    vertex 11101.017273687628 3660.542202277698 953.9244247136754
    vertex 11101.017273687627 3660.0244353247303 954.3217212701693
  endloop
endfacet
facet normal -1.708338646232234e-13 0.608761429006979 0.7933533402925714
  outer loop
    vertex 11101.017273687628 3660.542202277698 953.9244247136754
    vertex 11114.717959165846 3660.024435324734 954.3217212701696
    vertex 11114.717959165846 3660.5422022777016 953.9244247136759
  endloop
endfacet
facet normal -2.1703455205392194e-13 0.793353340291298 0.6087614290086388
  outer loop
    vertex 11114.717959165846 3659.6271387682386 954.8394882231369
    vertex 11101.017273687627 3660.0244353247303 954.3217212701693
    vertex 11101.017273687627 3659.627138768235 954.8394882231365
  endloop
endfacet
facet normal -2.1703455205392194e-13 0.793353340291298 0.6087614290086388
  outer loop
    vertex 11101.017273687627 3660.0244353247303 954.3217212701693
    vertex 11114.717959165846 3659.6271387682386 954.8394882231369
    vertex 11114.717959165846 3660.024435324734 954.3217212701696
  endloop
endfacet
facet normal -2.4844543987538096e-13 0.9238795325112651 0.38268343236514235
  outer loop
    vertex 11114.717959165846 3659.377387711977 955.4424406103807
    vertex 11101.017273687627 3659.627138768235 954.8394882231365
    vertex 11101.01727368763 3659.3773877119734 955.4424406103803
  endloop
endfacet
facet normal -2.4844543987538096e-13 0.9238795325112651 0.38268343236514235
  outer loop
    vertex 11101.017273687627 3659.627138768235 954.8394882231365
    vertex 11114.717959165846 3659.377387711977 955.4424406103807
    vertex 11114.717959165846 3659.6271387682386 954.8394882231369
  endloop
endfacet
facet normal -2.6292359036989163e-13 0.9914448613737802 0.13052619222028206
  outer loop
    vertex 11114.717959165844 3659.2922022776997 956.089488223136
    vertex 11101.01727368763 3659.3773877119734 955.4424406103803
    vertex 11101.017273687628 3659.292202277696 956.0894882231355
  endloop
endfacet
facet normal -2.6292359036989163e-13 0.9914448613737802 0.13052619222028206
  outer loop
    vertex 11101.01727368763 3659.3773877119734 955.4424406103803
    vertex 11114.717959165844 3659.2922022776997 956.089488223136
    vertex 11114.717959165846 3659.377387711977 955.4424406103807
  endloop
endfacet
facet normal 0.6087614290109169 1.7266005498779122e-13 0.7933533402895498
  outer loop
    vertex 11069.528311600225 3709.868205506005 953.5681502222423
    vertex 11069.010544647264 3720.9066697626026 953.9654467787351
    vertex 11069.010544647264 3709.8682055060035 953.9654467787352
  endloop
endfacet
facet normal 0.6087614290109169 1.7266005498779122e-13 0.7933533402895498
  outer loop
    vertex 11069.010544647264 3720.9066697626026 953.9654467787351
    vertex 11069.528311600225 3709.868205506005 953.5681502222423
    vertex 11069.528311600225 3720.9066697626045 953.5681502222421
  endloop
endfacet
facet normal 0.3826834323644747 1.1242033031905484e-13 0.9238795325115416
  outer loop
    vertex 11070.131263987469 3709.868205506005 953.3183991659808
    vertex 11069.528311600225 3720.9066697626045 953.5681502222421
    vertex 11069.528311600225 3709.868205506005 953.5681502222423
  endloop
endfacet
facet normal 0.3826834323644747 1.1242033031905484e-13 0.9238795325115416
  outer loop
    vertex 11069.528311600225 3720.9066697626045 953.5681502222421
    vertex 11070.131263987469 3709.868205506005 953.3183991659808
    vertex 11070.131263987469 3720.9066697626045 953.3183991659808
  endloop
endfacet
facet normal 0.1305261922182787 4.451934592287496e-14 0.9914448613740438
  outer loop
    vertex 11070.778311600228 3709.868205506005 953.2332137317044
    vertex 11070.131263987469 3720.9066697626045 953.3183991659808
    vertex 11070.131263987469 3709.868205506005 953.3183991659808
  endloop
endfacet
facet normal 0.1305261922182787 4.451934592287496e-14 0.9914448613740438
  outer loop
    vertex 11070.131263987469 3720.9066697626045 953.3183991659808
    vertex 11070.778311600228 3709.868205506005 953.2332137317044
    vertex 11070.778311600228 3720.9066697626045 953.2332137317044
  endloop
endfacet
facet normal -0.1305261922212833 -2.641555832582555e-14 0.9914448613736484
  outer loop
    vertex 11071.425359212984 3709.868205506005 953.3183991659826
    vertex 11070.778311600228 3720.9066697626045 953.2332137317044
    vertex 11070.778311600228 3709.868205506005 953.2332137317044
  endloop
endfacet
facet normal -0.1305261922212833 -2.641555832582555e-14 0.9914448613736484
  outer loop
    vertex 11070.778311600228 3720.9066697626045 953.2332137317044
    vertex 11071.425359212984 3709.868205506005 953.3183991659826
    vertex 11071.425359212984 3720.9066697626045 953.3183991659826
  endloop
endfacet
facet normal -0.3826834323645487 -9.555028592807633e-14 0.9238795325115109
  outer loop
    vertex 11072.028311600227 3709.868205506005 953.5681502222434
    vertex 11071.425359212984 3720.9066697626045 953.3183991659826
    vertex 11071.425359212984 3709.868205506005 953.3183991659826
  endloop
endfacet
facet normal -0.3826834323645487 -9.555028592807633e-14 0.9238795325115109
  outer loop
    vertex 11071.425359212984 3720.9066697626045 953.3183991659826
    vertex 11072.028311600227 3709.868205506005 953.5681502222434
    vertex 11072.028311600227 3720.9066697626045 953.5681502222435
  endloop
endfacet
facet normal -0.6087614290101725 -1.5817341944967095e-13 0.7933533402901211
  outer loop
    vertex 11072.54607855319 3709.868205506006 953.9654467787379
    vertex 11072.028311600227 3720.9066697626045 953.5681502222435
    vertex 11072.028311600227 3709.868205506005 953.5681502222434
  endloop
endfacet
facet normal -0.6087614290101725 -1.5817341944967095e-13 0.7933533402901211
  outer loop
    vertex 11072.028311600227 3720.9066697626045 953.5681502222435
    vertex 11072.54607855319 3709.868205506006 953.9654467787379
    vertex 11072.54607855319 3720.906669762605 953.9654467787379
  endloop
endfacet
facet normal -0.7933533402919348 -2.1001729582897292e-13 0.6087614290078089
  outer loop
    vertex 11072.54607855319 3709.868205506006 953.9654467787379
    vertex 11072.943375109686 3720.906669762605 954.4832137317052
    vertex 11072.54607855319 3720.906669762605 953.9654467787379
  endloop
endfacet
facet normal -0.7933533402919348 -2.1001729582897292e-13 0.6087614290078089
  outer loop
    vertex 11072.943375109686 3720.906669762605 954.4832137317052
    vertex 11072.54607855319 3709.868205506006 953.9654467787379
    vertex 11072.943375109686 3709.868205506006 954.4832137317054
  endloop
endfacet
facet normal -0.9238795325124383 -2.475488405678814e-13 0.3826834323623098
  outer loop
    vertex 11072.943375109686 3709.868205506006 954.4832137317054
    vertex 11073.193126165947 3720.9066697626045 955.0861661189492
    vertex 11072.943375109686 3720.906669762605 954.4832137317052
  endloop
endfacet
facet normal -0.9238795325124383 -2.475488405678814e-13 0.3826834323623098
  outer loop
    vertex 11073.193126165947 3720.9066697626045 955.0861661189492
    vertex 11072.943375109686 3709.868205506006 954.4832137317054
    vertex 11073.193126165947 3709.868205506005 955.0861661189492
  endloop
endfacet
facet normal -0.9914448613735034 -2.682103409153305e-13 0.1305261922223851
  outer loop
    vertex 11073.193126165947 3709.868205506005 955.0861661189492
    vertex 11073.278311600227 3720.9066697626045 955.7332137317047
    vertex 11073.193126165947 3720.9066697626045 955.0861661189492
  endloop
endfacet
facet normal -0.9914448613735034 -2.682103409153305e-13 0.1305261922223851
  outer loop
    vertex 11073.278311600227 3720.9066697626045 955.7332137317047
    vertex 11073.193126165947 3709.868205506005 955.0861661189492
    vertex 11073.278311600227 3709.868205506005 955.7332137317045
  endloop
endfacet
facet normal -0.9914448613729213 -2.7059374976830603e-13 -0.1305261922268059
  outer loop
    vertex 11073.278311600227 3720.9066697626045 955.7332137317047
    vertex 11073.193126165943 3709.868205506006 956.3802613444599
    vertex 11073.193126165943 3720.906669762605 956.3802613444599
  endloop
endfacet
facet normal -0.9914448613729213 -2.7059374976830603e-13 -0.1305261922268059
  outer loop
    vertex 11073.193126165943 3709.868205506006 956.3802613444599
    vertex 11073.278311600227 3720.9066697626045 955.7332137317047
    vertex 11073.278311600227 3709.868205506005 955.7332137317045
  endloop
endfacet
facet normal -0.9238795325116561 -2.545366417522212e-13 -0.38268343236419816
  outer loop
    vertex 11073.193126165943 3720.906669762605 956.3802613444599
    vertex 11072.943375109682 3709.8682055060062 956.9832137317037
    vertex 11072.943375109682 3720.906669762606 956.9832137317035
  endloop
endfacet
facet normal -0.9238795325116561 -2.545366417522212e-13 -0.38268343236419816
  outer loop
    vertex 11072.943375109682 3709.8682055060062 956.9832137317037
    vertex 11073.193126165943 3720.906669762605 956.3802613444599
    vertex 11073.193126165943 3709.868205506006 956.3802613444599
  endloop
endfacet
facet normal -0.7933533402964573 -2.2113328224341053e-13 -0.6087614290019152
  outer loop
    vertex 11072.943375109682 3709.8682055060062 956.9832137317037
    vertex 11072.546078553194 3720.906669762605 957.5009806846697
    vertex 11072.943375109682 3720.906669762606 956.9832137317035
  endloop
endfacet
facet normal -0.7933533402964573 -2.2113328224341053e-13 -0.6087614290019152
  outer loop
    vertex 11072.546078553194 3720.906669762605 957.5009806846697
    vertex 11072.943375109682 3709.8682055060062 956.9832137317037
    vertex 11072.546078553194 3709.868205506006 957.5009806846697
  endloop
endfacet
facet normal -0.6087614290076392 -1.726600549869236e-13 -0.7933533402920651
  outer loop
    vertex 11072.028311600225 3720.9066697626045 957.8982772411658
    vertex 11072.546078553194 3709.868205506006 957.5009806846697
    vertex 11072.028311600225 3709.868205506005 957.8982772411657
  endloop
endfacet
facet normal -0.6087614290076392 -1.726600549869236e-13 -0.7933533402920651
  outer loop
    vertex 11072.546078553194 3709.868205506006 957.5009806846697
    vertex 11072.028311600225 3720.9066697626045 957.8982772411658
    vertex 11072.546078553194 3720.906669762605 957.5009806846697
  endloop
endfacet
facet normal -0.3826834323628225 -1.1242033031861213e-13 -0.9238795325122261
  outer loop
    vertex 11071.42535921298 3720.9066697626035 958.1480282974258
    vertex 11072.028311600225 3709.868205506005 957.8982772411657
    vertex 11071.42535921298 3709.868205506004 958.1480282974258
  endloop
endfacet
facet normal -0.3826834323628225 -1.1242033031861213e-13 -0.9238795325122261
  outer loop
    vertex 11072.028311600225 3709.868205506005 957.8982772411657
    vertex 11071.42535921298 3720.9066697626035 958.1480282974258
    vertex 11072.028311600225 3720.9066697626045 957.8982772411658
  endloop
endfacet
facet normal -0.13052619222185588 -4.451934592384269e-14 -0.991444861373573
  outer loop
    vertex 11070.778311600227 3720.9066697626045 958.2332137317039
    vertex 11071.42535921298 3709.868205506004 958.1480282974258
    vertex 11070.778311600227 3709.868205506005 958.2332137317039
  endloop
endfacet
facet normal -0.13052619222185588 -4.451934592384269e-14 -0.991444861373573
  outer loop
    vertex 11071.42535921298 3709.868205506004 958.1480282974258
    vertex 11070.778311600227 3720.9066697626045 958.2332137317039
    vertex 11071.42535921298 3720.9066697626035 958.1480282974258
  endloop
endfacet
facet normal 0.1305261922188513 2.6415558325161783e-14 -0.9914448613739685
  outer loop
    vertex 11070.13126398747 3720.9066697626045 958.1480282974276
    vertex 11070.778311600227 3709.868205506005 958.2332137317039
    vertex 11070.13126398747 3709.868205506005 958.1480282974276
  endloop
endfacet
facet normal 0.1305261922188513 2.6415558325161783e-14 -0.9914448613739685
  outer loop
    vertex 11070.778311600227 3709.868205506005 958.2332137317039
    vertex 11070.13126398747 3720.9066697626045 958.1480282974276
    vertex 11070.778311600227 3720.9066697626045 958.2332137317039
  endloop
endfacet
facet normal 0.3826834323665111 9.555028592861695e-14 -0.923879532510698
  outer loop
    vertex 11069.52831160023 3720.9066697626045 957.8982772411658
    vertex 11070.13126398747 3709.868205506005 958.1480282974276
    vertex 11069.52831160023 3709.868205506005 957.898277241166
  endloop
endfacet
facet normal 0.3826834323665111 9.555028592861695e-14 -0.923879532510698
  outer loop
    vertex 11070.13126398747 3709.868205506005 958.1480282974276
    vertex 11069.52831160023 3720.9066697626045 957.8982772411658
    vertex 11070.13126398747 3720.9066697626045 958.1480282974276
  endloop
endfacet
facet normal 0.6087614290065707 1.5817341944866707e-13 -0.7933533402928848
  outer loop
    vertex 11069.010544647259 3720.9066697626035 957.5009806846697
    vertex 11069.52831160023 3709.868205506005 957.898277241166
    vertex 11069.010544647259 3709.868205506004 957.5009806846698
  endloop
endfacet
facet normal 0.6087614290065707 1.5817341944866707e-13 -0.7933533402928848
  outer loop
    vertex 11069.52831160023 3709.868205506005 957.898277241166
    vertex 11069.010544647259 3720.9066697626035 957.5009806846697
    vertex 11069.52831160023 3720.9066697626045 957.8982772411658
  endloop
endfacet
facet normal 0.7933533402915248 2.1001729582885667e-13 -0.6087614290083432
  outer loop
    vertex 11069.010544647259 3709.868205506004 957.5009806846698
    vertex 11068.613248090764 3720.9066697626035 956.9832137317031
    vertex 11069.010544647259 3720.9066697626035 957.5009806846697
  endloop
endfacet
facet normal 0.7933533402915248 2.1001729582885667e-13 -0.6087614290083432
  outer loop
    vertex 11068.613248090764 3720.9066697626035 956.9832137317031
    vertex 11069.010544647259 3709.868205506004 957.5009806846698
    vertex 11068.613248090764 3709.868205506004 956.983213731703
  endloop
endfacet
facet normal 0.9238795325101729 2.475488405672159e-13 -0.3826834323677793
  outer loop
    vertex 11068.613248090764 3709.868205506004 956.983213731703
    vertex 11068.3634970345 3720.9066697626035 956.380261344459
    vertex 11068.613248090764 3720.9066697626035 956.9832137317031
  endloop
endfacet
facet normal 0.9238795325101729 2.475488405672159e-13 -0.3826834323677793
  outer loop
    vertex 11068.3634970345 3720.9066697626035 956.380261344459
    vertex 11068.613248090764 3709.868205506004 956.983213731703
    vertex 11068.3634970345 3709.868205506004 956.380261344459
  endloop
endfacet
facet normal 0.9914448613743527 2.6821034091562027e-13 -0.13052619221593278
  outer loop
    vertex 11068.3634970345 3709.868205506004 956.380261344459
    vertex 11068.278311600227 3720.9066697626035 955.7332137317036
    vertex 11068.3634970345 3720.9066697626035 956.380261344459
  endloop
endfacet
facet normal 0.9914448613743527 2.6821034091562027e-13 -0.13052619221593278
  outer loop
    vertex 11068.278311600227 3720.9066697626035 955.7332137317036
    vertex 11068.3634970345 3709.868205506004 956.380261344459
    vertex 11068.278311600227 3709.868205506004 955.7332137317038
  endloop
endfacet
facet normal 0.9914448613743716 2.7059374976859946e-13 0.13052619221578965
  outer loop
    vertex 11068.278311600227 3709.868205506004 955.7332137317038
    vertex 11068.363497034501 3720.9066697626026 955.086166118948
    vertex 11068.278311600227 3720.9066697626035 955.7332137317036
  endloop
endfacet
facet normal 0.9914448613743716 2.7059374976859946e-13 0.13052619221578965
  outer loop
    vertex 11068.363497034501 3720.9066697626026 955.086166118948
    vertex 11068.278311600227 3709.868205506004 955.7332137317038
    vertex 11068.363497034501 3709.8682055060035 955.086166118948
  endloop
endfacet
facet normal 0.9238795325094715 2.545366417516758e-13 0.382683432369472
  outer loop
    vertex 11068.363497034501 3720.9066697626026 955.086166118948
    vertex 11068.613248090765 3709.868205506004 954.4832137317031
    vertex 11068.613248090765 3720.9066697626035 954.4832137317034
  endloop
endfacet
facet normal 0.9238795325094715 2.545366417516758e-13 0.382683432369472
  outer loop
    vertex 11068.613248090765 3709.868205506004 954.4832137317031
    vertex 11068.363497034501 3720.9066697626026 955.086166118948
    vertex 11068.363497034501 3709.8682055060035 955.086166118948
  endloop
endfacet
facet normal 0.7933533402891394 2.2113328224150914e-13 0.6087614290114521
  outer loop
    vertex 11068.613248090765 3709.868205506004 954.4832137317031
    vertex 11069.010544647264 3720.9066697626026 953.9654467787351
    vertex 11068.613248090765 3720.9066697626035 954.4832137317034
  endloop
endfacet
facet normal 0.7933533402891394 2.2113328224150914e-13 0.6087614290114521
  outer loop
    vertex 11069.010544647264 3720.9066697626026 953.9654467787351
    vertex 11068.613248090765 3709.868205506004 954.4832137317031
    vertex 11069.010544647264 3709.8682055060035 953.9654467787352
  endloop
endfacet
endsolid redstoneLamp
